<svg width="290" height="151" viewBox="0 0 290 151" fill="none" xmlns="http://www.w3.org/2000/svg">
<path d="M284 25.28H5V113.28H284V25.28Z" stroke="#505967" stroke-width="0.5" stroke-linecap="round" stroke-dasharray="4 4"/>
<path d="M8 20.28H3C1.89543 20.28 1 21.1755 1 22.28V27.28C1 28.3846 1.89543 29.28 3 29.28H8C9.10457 29.28 10 28.3846 10 27.28V22.28C10 21.1755 9.10457 20.28 8 20.28Z" fill="#26282D" stroke="#505967" stroke-width="0.5"/>
<path d="M286 20.28H281C279.895 20.28 279 21.1755 279 22.28V27.28C279 28.3846 279.895 29.28 281 29.28H286C287.105 29.28 288 28.3846 288 27.28V22.28C288 21.1755 287.105 20.28 286 20.28Z" fill="#26282D" stroke="#505967" stroke-width="0.5"/>
<path d="M8 108.28H3C1.89543 108.28 1 109.175 1 110.28V115.28C1 116.385 1.89543 117.28 3 117.28H8C9.10457 117.28 10 116.385 10 115.28V110.28C10 109.175 9.10457 108.28 8 108.28Z" fill="#26282D" stroke="#505967" stroke-width="0.5"/>
<path d="M286 108.28H281C279.895 108.28 279 109.175 279 110.28V115.28C279 116.385 279.895 117.28 281 117.28H286C287.105 117.28 288 116.385 288 115.28V110.28C288 109.175 287.105 108.28 286 108.28Z" fill="#26282D" stroke="#505967" stroke-width="0.5"/>
<path d="M230.664 10.28H59.6641C56.3504 10.28 53.6641 12.9663 53.6641 16.28V38.28C53.6641 41.5937 56.3504 44.28 59.6641 44.28H230.664C233.978 44.28 236.664 41.5937 236.664 38.28V16.28C236.664 12.9663 233.978 10.28 230.664 10.28Z" fill="#26282D"/>
<path d="M230.664 10.53H59.6641C56.4884 10.53 53.9141 13.1044 53.9141 16.28V38.28C53.9141 41.4557 56.4884 44.03 59.6641 44.03H230.664C233.84 44.03 236.414 41.4557 236.414 38.28V16.28C236.414 13.1044 233.84 10.53 230.664 10.53Z" stroke="#505967" stroke-width="0.5"/>
<path d="M64.6641 30.28C66.3209 30.28 67.6641 28.9369 67.6641 27.28C67.6641 25.6232 66.3209 24.28 64.6641 24.28C63.0072 24.28 61.6641 25.6232 61.6641 27.28C61.6641 28.9369 63.0072 30.28 64.6641 30.28Z" fill="#505967"/>
<path d="M74.6641 30.28C76.3209 30.28 77.6641 28.9369 77.6641 27.28C77.6641 25.6232 76.3209 24.28 74.6641 24.28C73.0072 24.28 71.6641 25.6232 71.6641 27.28C71.6641 28.9369 73.0072 30.28 74.6641 30.28Z" fill="#505967"/>
<path d="M84.6641 30.28C86.3209 30.28 87.6641 28.9369 87.6641 27.28C87.6641 25.6232 86.3209 24.28 84.6641 24.28C83.0072 24.28 81.6641 25.6232 81.6641 27.28C81.6641 28.9369 83.0072 30.28 84.6641 30.28Z" fill="#505967"/>
<path d="M221.664 34.78C225.806 34.78 229.164 31.4222 229.164 27.28C229.164 23.1379 225.806 19.78 221.664 19.78C217.522 19.78 214.164 23.1379 214.164 27.28C214.164 31.4222 217.522 34.78 221.664 34.78Z" fill="#505967" stroke="#26282D"/>
<path d="M212.664 34.78C216.806 34.78 220.164 31.4222 220.164 27.28C220.164 23.1379 216.806 19.78 212.664 19.78C208.522 19.78 205.164 23.1379 205.164 27.28C205.164 31.4222 208.522 34.78 212.664 34.78Z" fill="#6F7988" stroke="#26282D"/>
<path d="M203.664 34.78C207.806 34.78 211.164 31.4222 211.164 27.28C211.164 23.1379 207.806 19.78 203.664 19.78C199.522 19.78 196.164 23.1379 196.164 27.28C196.164 31.4222 199.522 34.78 203.664 34.78Z" fill="#505967" stroke="#26282D"/>
<path d="M93 51.28H60C56.6863 51.28 54 53.9663 54 57.28V121.28C54 124.594 56.6863 127.28 60 127.28H93C96.3137 127.28 99 124.594 99 121.28V57.28C99 53.9663 96.3137 51.28 93 51.28Z" fill="#26282D"/>
<path d="M93 51.53H60C56.8244 51.53 54.25 54.1044 54.25 57.28V121.28C54.25 124.456 56.8244 127.03 60 127.03H93C96.1756 127.03 98.75 124.456 98.75 121.28V57.28C98.75 54.1044 96.1756 51.53 93 51.53Z" stroke="#505967" stroke-width="0.5"/>
<path d="M231 51.28H114C110.686 51.28 108 53.9663 108 57.28V121.28C108 124.594 110.686 127.28 114 127.28H231C234.314 127.28 237 124.594 237 121.28V57.28C237 53.9663 234.314 51.28 231 51.28Z" fill="#26282D"/>
<path d="M231 51.53H114C110.824 51.53 108.25 54.1044 108.25 57.28V121.28C108.25 124.456 110.824 127.03 114 127.03H231C234.176 127.03 236.75 124.456 236.75 121.28V57.28C236.75 54.1044 234.176 51.53 231 51.53Z" stroke="#505967" stroke-width="0.5"/>
<path d="M208.664 109.28H142.664C141.007 109.28 139.664 110.623 139.664 112.28C139.664 113.937 141.007 115.28 142.664 115.28H208.664C210.321 115.28 211.664 113.937 211.664 112.28C211.664 110.623 210.321 109.28 208.664 109.28Z" fill="#505967"/>
<path d="M118.664 112.817L123.409 107.447V111.743H126.492L121.409 117.114V112.817H118.664Z" fill="#6B9FFF" stroke="#6B9FFF" stroke-width="1.2" stroke-linecap="round" stroke-linejoin="round"/>
<path d="M165.664 86.28H142.664C141.007 86.28 139.664 87.6232 139.664 89.28C139.664 90.9369 141.007 92.28 142.664 92.28H165.664C167.321 92.28 168.664 90.9369 168.664 89.28C168.664 87.6232 167.321 86.28 165.664 86.28Z" fill="#505967"/>
<path d="M117.836 94.1132L120.669 93.4466L126.865 87.2513C127.125 86.991 127.125 86.5688 126.865 86.3085L125.641 85.0846C125.38 84.8243 124.958 84.8243 124.698 85.0846L118.503 91.2799L117.836 94.1132Z" fill="#9098A0" stroke="#9098A0" stroke-width="1.2" stroke-linecap="round" stroke-linejoin="round"/>
<path d="M127.503 94.113H123.836" stroke="#9098A0" stroke-width="1.2" stroke-linecap="round" stroke-linejoin="round"/>
<path d="M181.664 63.28H142.664C141.007 63.28 139.664 64.6232 139.664 66.28C139.664 67.9369 141.007 69.28 142.664 69.28H181.664C183.321 69.28 184.664 67.9369 184.664 66.28C184.664 64.6232 183.321 63.28 181.664 63.28Z" fill="#505967"/>
<path d="M124.833 63.6137C124.833 64.8103 123.863 65.7803 122.667 65.7803C121.47 65.7803 120.5 64.8103 120.5 63.6137C120.5 62.417 121.47 61.447 122.667 61.447C123.863 61.447 124.833 62.417 124.833 63.6137Z" fill="#6B9FFF" stroke="#6B9FFF" stroke-width="1.2" stroke-linecap="round" stroke-linejoin="round"/>
<path d="M119.232 71.113H126.102C126.863 71.113 127.449 70.4584 127.094 69.7853C126.571 68.795 125.379 67.613 122.667 67.613C119.955 67.613 118.762 68.795 118.239 69.7853C117.884 70.4584 118.47 71.113 119.232 71.113Z" fill="#6B9FFF" stroke="#6B9FFF" stroke-width="1.2" stroke-linecap="round" stroke-linejoin="round"/>
</svg>
