<svg width="290" height="151" viewBox="0 0 290 151" fill="none" xmlns="http://www.w3.org/2000/svg">
<path d="M284 25.28H5V113.28H284V25.28Z" stroke="#505967" stroke-width="0.5" stroke-linecap="round" stroke-dasharray="4 4"/>
<path d="M8 20.28H3C1.89543 20.28 1 21.1755 1 22.28V27.28C1 28.3846 1.89543 29.28 3 29.28H8C9.10457 29.28 10 28.3846 10 27.28V22.28C10 21.1755 9.10457 20.28 8 20.28Z" fill="#26282D" stroke="#505967" stroke-width="0.5"/>
<path d="M286 20.28H281C279.895 20.28 279 21.1755 279 22.28V27.28C279 28.3846 279.895 29.28 281 29.28H286C287.105 29.28 288 28.3846 288 27.28V22.28C288 21.1755 287.105 20.28 286 20.28Z" fill="#26282D" stroke="#505967" stroke-width="0.5"/>
<path d="M8 108.28H3C1.89543 108.28 1 109.175 1 110.28V115.28C1 116.385 1.89543 117.28 3 117.28H8C9.10457 117.28 10 116.385 10 115.28V110.28C10 109.175 9.10457 108.28 8 108.28Z" fill="#26282D" stroke="#505967" stroke-width="0.5"/>
<path d="M286 108.28H281C279.895 108.28 279 109.175 279 110.28V115.28C279 116.385 279.895 117.28 281 117.28H286C287.105 117.28 288 116.385 288 115.28V110.28C288 109.175 287.105 108.28 286 108.28Z" fill="#26282D" stroke="#505967" stroke-width="0.5"/>
<path d="M230 10.28H59C55.6863 10.28 53 12.9663 53 16.28V38.28C53 41.5937 55.6863 44.28 59 44.28H230C233.314 44.28 236 41.5937 236 38.28V16.28C236 12.9663 233.314 10.28 230 10.28Z" fill="#26282D"/>
<path d="M230 10.53H59C55.8244 10.53 53.25 13.1044 53.25 16.28V38.28C53.25 41.4557 55.8244 44.03 59 44.03H230C233.176 44.03 235.75 41.4557 235.75 38.28V16.28C235.75 13.1044 233.176 10.53 230 10.53Z" stroke="#505967" stroke-width="0.5"/>
<path d="M114 24.28H86C84.3431 24.28 83 25.6232 83 27.28C83 28.9369 84.3431 30.28 86 30.28H114C115.657 30.28 117 28.9369 117 27.28C117 25.6232 115.657 24.28 114 24.28Z" fill="#505967"/>
<path fill-rule="evenodd" clip-rule="evenodd" d="M63.8331 23.9502C63.7295 24.1635 63.6719 24.4002 63.6719 24.6494V29.9113C63.6719 30.8515 64.4927 31.6137 65.5052 31.6137H72.5052C73.5177 31.6137 74.3385 30.8515 74.3385 29.9113V24.6494C74.3385 24.4002 74.2809 24.1635 74.1773 23.9502L69.341 27.8322C69.1504 27.9851 68.86 27.9851 68.6694 27.8322L63.8331 23.9502ZM73.5555 23.2539C73.2581 23.0605 72.8959 22.947 72.5052 22.947H65.5052C65.1145 22.947 64.7523 23.0605 64.4549 23.2539L69.0052 26.9063L73.5555 23.2539Z" fill="#6B9FFF"/>
<path d="M219.251 22.3425C219.251 24.4136 218.135 26.28 216.062 26.28C218.135 26.28 219.251 28.1464 219.251 30.2175C219.251 28.1464 220.366 26.28 222.438 26.28C220.366 26.28 219.251 24.4136 219.251 22.3425Z" fill="#505967"/>
<path d="M214.001 28.3425C214.001 29.5851 212.806 30.78 211.562 30.78C212.806 30.78 214.001 31.9749 214.001 33.2175C214.001 31.9749 215.195 30.78 216.438 30.78C215.195 30.78 214.001 29.5851 214.001 28.3425Z" fill="#505967"/>
<path d="M219.251 22.3425C219.251 24.4136 218.135 26.28 216.062 26.28C218.135 26.28 219.251 28.1464 219.251 30.2175C219.251 28.1464 220.366 26.28 222.438 26.28C220.366 26.28 219.251 24.4136 219.251 22.3425Z" stroke="#505967" stroke-width="1.35" stroke-linecap="round" stroke-linejoin="round"/>
<path d="M214.001 28.3425C214.001 29.5851 212.806 30.78 211.562 30.78C212.806 30.78 214.001 31.9749 214.001 33.2175C214.001 31.9749 215.196 30.78 216.438 30.78C215.196 30.78 214.001 29.5851 214.001 28.3425Z" stroke="#505967" stroke-width="1.35" stroke-linecap="round" stroke-linejoin="round"/>
<path d="M230 92.28H59C55.6863 92.28 53 94.9663 53 98.28V120.28C53 123.594 55.6863 126.28 59 126.28H230C233.314 126.28 236 123.594 236 120.28V98.28C236 94.9663 233.314 92.28 230 92.28Z" fill="#26282D"/>
<path d="M230 92.53H59C55.8244 92.53 53.25 95.1044 53.25 98.28V120.28C53.25 123.456 55.8244 126.03 59 126.03H230C233.176 126.03 235.75 123.456 235.75 120.28V98.28C235.75 95.1044 233.176 92.53 230 92.53Z" stroke="#505967" stroke-width="0.5"/>
<path d="M124 106.28H86C84.3431 106.28 83 107.623 83 109.28C83 110.937 84.3431 112.28 86 112.28H124C125.657 112.28 127 110.937 127 109.28C127 107.623 125.657 106.28 124 106.28Z" fill="#505967"/>
<path fill-rule="evenodd" clip-rule="evenodd" d="M68.7134 114.526C68.7135 114.527 68.7136 114.527 68.9948 114.113L68.7134 114.526ZM69.2765 114.526L69.2804 114.524L69.2908 114.516L69.3287 114.49C69.3613 114.467 69.4082 114.434 69.4675 114.391C69.586 114.305 69.754 114.18 69.955 114.022C70.3562 113.706 70.893 113.255 71.4317 112.717C71.9687 112.18 72.5188 111.544 72.9373 110.858C73.3535 110.175 73.6615 109.407 73.6615 108.613C73.6615 105.994 71.4704 103.947 68.9948 103.947C66.5192 103.947 64.3281 105.994 64.3281 108.613C64.3281 109.407 64.6361 110.175 65.0523 110.858C65.4708 111.544 66.0209 112.18 66.5579 112.717C67.0966 113.255 67.6334 113.706 68.0346 114.022C68.2356 114.18 68.4036 114.305 68.5221 114.391C68.5814 114.434 68.6283 114.467 68.6609 114.49L68.6988 114.516L68.7092 114.524L68.7122 114.526H68.7134C68.8831 114.642 69.1068 114.642 69.2765 114.526ZM68.9948 114.113L69.2765 114.526C69.2764 114.526 69.276 114.527 68.9948 114.113ZM67.1621 108.613C67.1621 107.6 67.9829 106.78 68.9954 106.78C70.008 106.78 70.8288 107.6 70.8288 108.613C70.8288 109.625 70.008 110.446 68.9954 110.446C67.9829 110.446 67.1621 109.625 67.1621 108.613Z" fill="#6B9FFF"/>
<path d="M219.251 104.342C219.251 106.414 218.135 108.28 216.062 108.28C218.135 108.28 219.251 110.146 219.251 112.217C219.251 110.146 220.366 108.28 222.438 108.28C220.366 108.28 219.251 106.414 219.251 104.342Z" fill="#505967"/>
<path d="M214.001 110.342C214.001 111.585 212.806 112.78 211.562 112.78C212.806 112.78 214.001 113.975 214.001 115.217C214.001 113.975 215.195 112.78 216.438 112.78C215.195 112.78 214.001 111.585 214.001 110.342Z" fill="#505967"/>
<path d="M219.251 104.342C219.251 106.414 218.135 108.28 216.062 108.28C218.135 108.28 219.251 110.146 219.251 112.217C219.251 110.146 220.366 108.28 222.438 108.28C220.366 108.28 219.251 106.414 219.251 104.342Z" stroke="#505967" stroke-width="1.35" stroke-linecap="round" stroke-linejoin="round"/>
<path d="M214.001 110.342C214.001 111.585 212.806 112.78 211.562 112.78C212.806 112.78 214.001 113.975 214.001 115.217C214.001 113.975 215.196 112.78 216.438 112.78C215.196 112.78 214.001 111.585 214.001 110.342Z" stroke="#505967" stroke-width="1.35" stroke-linecap="round" stroke-linejoin="round"/>
<path d="M230 51.28H59C55.6863 51.28 53 53.9663 53 57.28V79.28C53 82.5937 55.6863 85.28 59 85.28H230C233.314 85.28 236 82.5937 236 79.28V57.28C236 53.9663 233.314 51.28 230 51.28Z" fill="#26282D"/>
<path d="M230 51.53H59C55.8244 51.53 53.25 54.1044 53.25 57.28V79.28C53.25 82.4557 55.8244 85.03 59 85.03H230C233.176 85.03 235.75 82.4557 235.75 79.28V57.28C235.75 54.1044 233.176 51.53 230 51.53Z" stroke="#505967" stroke-width="0.5"/>
<path d="M136 65.28H86C84.3431 65.28 83 66.6232 83 68.28C83 69.9369 84.3431 71.28 86 71.28H136C137.657 71.28 139 69.9369 139 68.28C139 66.6232 137.657 65.28 136 65.28Z" fill="#505967"/>
<path d="M64.1719 73.1132L67.0052 72.4466L73.2005 66.2513C73.4608 65.991 73.4608 65.5688 73.2005 65.3085L71.9766 64.0846C71.7163 63.8243 71.2941 63.8243 71.0338 64.0846L64.8385 70.2799L64.1719 73.1132Z" fill="#6F7988" stroke="#6F7988" stroke-width="1.2" stroke-linecap="round" stroke-linejoin="round"/>
<path d="M73.8385 73.113H70.1719" stroke="#6F7988" stroke-width="1.2" stroke-linecap="round" stroke-linejoin="round"/>
<path d="M219.251 63.3425C219.251 65.4136 218.135 67.28 216.062 67.28C218.135 67.28 219.251 69.1464 219.251 71.2175C219.251 69.1464 220.366 67.28 222.438 67.28C220.366 67.28 219.251 65.4136 219.251 63.3425Z" fill="#9098A0"/>
<path d="M214.001 69.3425C214.001 70.5851 212.806 71.78 211.562 71.78C212.806 71.78 214.001 72.9749 214.001 74.2175C214.001 72.9749 215.195 71.78 216.438 71.78C215.195 71.78 214.001 70.5851 214.001 69.3425Z" fill="#9098A0"/>
<path d="M219.251 63.3425C219.251 65.4136 218.135 67.28 216.062 67.28C218.135 67.28 219.251 69.1464 219.251 71.2175C219.251 69.1464 220.366 67.28 222.438 67.28C220.366 67.28 219.251 65.4136 219.251 63.3425Z" stroke="#9098A0" stroke-width="1.35" stroke-linecap="round" stroke-linejoin="round"/>
<path d="M214.001 69.3425C214.001 70.5851 212.806 71.78 211.562 71.78C212.806 71.78 214.001 72.9749 214.001 74.2175C214.001 72.9749 215.196 71.78 216.438 71.78C215.196 71.78 214.001 70.5851 214.001 69.3425Z" stroke="#9098A0" stroke-width="1.35" stroke-linecap="round" stroke-linejoin="round"/>
</svg>
