<svg width="290" height="151" viewBox="0 0 290 151" fill="none" xmlns="http://www.w3.org/2000/svg">
<path d="M284 25.28H5V113.28H284V25.28Z" stroke="#505967" stroke-width="0.5" stroke-linecap="round" stroke-dasharray="4 4"/>
<path d="M8 20.28H3C1.89543 20.28 1 21.1755 1 22.28V27.28C1 28.3846 1.89543 29.28 3 29.28H8C9.10457 29.28 10 28.3846 10 27.28V22.28C10 21.1755 9.10457 20.28 8 20.28Z" fill="#26282D" stroke="#505967" stroke-width="0.5"/>
<path d="M286 20.28H281C279.895 20.28 279 21.1755 279 22.28V27.28C279 28.3846 279.895 29.28 281 29.28H286C287.105 29.28 288 28.3846 288 27.28V22.28C288 21.1755 287.105 20.28 286 20.28Z" fill="#26282D" stroke="#505967" stroke-width="0.5"/>
<path d="M8 108.28H3C1.89543 108.28 1 109.175 1 110.28V115.28C1 116.385 1.89543 117.28 3 117.28H8C9.10457 117.28 10 116.385 10 115.28V110.28C10 109.175 9.10457 108.28 8 108.28Z" fill="#26282D" stroke="#505967" stroke-width="0.5"/>
<path d="M286 108.28H281C279.895 108.28 279 109.175 279 110.28V115.28C279 116.385 279.895 117.28 281 117.28H286C287.105 117.28 288 116.385 288 115.28V110.28C288 109.175 287.105 108.28 286 108.28Z" fill="#26282D" stroke="#505967" stroke-width="0.5"/>
<path d="M230.664 10.28H59.6641C56.3504 10.28 53.6641 12.9663 53.6641 16.28V38.28C53.6641 41.5937 56.3504 44.28 59.6641 44.28H230.664C233.978 44.28 236.664 41.5937 236.664 38.28V16.28C236.664 12.9663 233.978 10.28 230.664 10.28Z" fill="#26282D"/>
<path d="M230.664 10.53H59.6641C56.4884 10.53 53.9141 13.1044 53.9141 16.28V38.28C53.9141 41.4557 56.4884 44.03 59.6641 44.03H230.664C233.84 44.03 236.414 41.4557 236.414 38.28V16.28C236.414 13.1044 233.84 10.53 230.664 10.53Z" stroke="#505967" stroke-width="0.5"/>
<path d="M124.664 24.28H86.6641C85.0072 24.28 83.6641 25.6232 83.6641 27.28C83.6641 28.9369 85.0072 30.28 86.6641 30.28H124.664C126.321 30.28 127.664 28.9369 127.664 27.28C127.664 25.6232 126.321 24.28 124.664 24.28Z" fill="#505967"/>
<path d="M71.8256 24.6137C71.8256 25.8103 70.8555 26.7803 69.6589 26.7803C68.4623 26.7803 67.4922 25.8103 67.4922 24.6137C67.4922 23.417 68.4623 22.447 69.6589 22.447C70.8555 22.447 71.8256 23.417 71.8256 24.6137Z" fill="#6B9FFF" stroke="#6B9FFF" stroke-width="1.2" stroke-linecap="round" stroke-linejoin="round"/>
<path d="M66.2314 32.113H73.1015C73.8628 32.113 74.4491 31.4584 74.0936 30.7853C73.5707 29.795 72.3784 28.613 69.6664 28.613C66.9544 28.613 65.7622 29.795 65.2393 30.7853C64.8837 31.4584 65.4702 32.113 66.2314 32.113Z" fill="#6B9FFF" stroke="#6B9FFF" stroke-width="1.2" stroke-linecap="round" stroke-linejoin="round"/>
<path d="M200.664 24.28H179.664C178.007 24.28 176.664 25.6232 176.664 27.28C176.664 28.9369 178.007 30.28 179.664 30.28H200.664C202.321 30.28 203.664 28.9369 203.664 27.28C203.664 25.6232 202.321 24.28 200.664 24.28Z" fill="#505967"/>
<path d="M162.664 25.1138L159.164 29.4471H166.164L162.664 25.1138Z" fill="#6F7988" stroke="#6F7988" stroke-width="1.2" stroke-linecap="round" stroke-linejoin="round"/>
<path d="M145.664 14.28V40.28" stroke="#505967" stroke-width="0.5"/>
<path d="M230.664 92.28H59.6641C56.3504 92.28 53.6641 94.9663 53.6641 98.28V120.28C53.6641 123.594 56.3504 126.28 59.6641 126.28H230.664C233.978 126.28 236.664 123.594 236.664 120.28V98.28C236.664 94.9663 233.978 92.28 230.664 92.28Z" fill="#26282D"/>
<path d="M230.664 92.53H59.6641C56.4884 92.53 53.9141 95.1044 53.9141 98.28V120.28C53.9141 123.456 56.4884 126.03 59.6641 126.03H230.664C233.84 126.03 236.414 123.456 236.414 120.28V98.28C236.414 95.1044 233.84 92.53 230.664 92.53Z" stroke="#505967" stroke-width="0.5"/>
<path d="M119.664 106.28H86.6641C85.0072 106.28 83.6641 107.623 83.6641 109.28C83.6641 110.937 85.0072 112.28 86.6641 112.28H119.664C121.321 112.28 122.664 110.937 122.664 109.28C122.664 107.623 121.321 106.28 119.664 106.28Z" fill="#505967"/>
<path d="M72.2918 104.645C72.2918 106.601 71.2373 108.363 69.2812 108.363C71.2373 108.363 72.2918 110.126 72.2918 112.082C72.2918 110.126 73.3462 108.363 75.3022 108.363C73.3462 108.363 72.2918 106.601 72.2918 104.645Z" fill="#6B9FFF"/>
<path d="M67.3334 110.311C67.3334 111.485 66.2049 112.613 65.0312 112.613C66.2049 112.613 67.3334 113.742 67.3334 114.916C67.3334 113.742 68.4619 112.613 69.6355 112.613C68.4619 112.613 67.3334 111.485 67.3334 110.311Z" fill="#6B9FFF"/>
<path d="M72.2918 104.645C72.2918 106.601 71.2373 108.363 69.2812 108.363C71.2373 108.363 72.2918 110.126 72.2918 112.082C72.2918 110.126 73.3462 108.363 75.3022 108.363C73.3462 108.363 72.2918 106.601 72.2918 104.645Z" stroke="#6B9FFF" stroke-width="1.275" stroke-linecap="round" stroke-linejoin="round"/>
<path d="M67.3334 110.311C67.3334 111.485 66.2049 112.613 65.0312 112.613C66.2049 112.613 67.3334 113.742 67.3334 114.916C67.3334 113.742 68.4619 112.613 69.6355 112.613C68.4619 112.613 67.3334 111.485 67.3334 110.311Z" stroke="#6B9FFF" stroke-width="1.275" stroke-linecap="round" stroke-linejoin="round"/>
<path d="M210.664 106.28H179.664C178.007 106.28 176.664 107.623 176.664 109.28C176.664 110.937 178.007 112.28 179.664 112.28H210.664C212.321 112.28 213.664 110.937 213.664 109.28C213.664 107.623 212.321 106.28 210.664 106.28Z" fill="#505967"/>
<path d="M162.664 107.114L159.164 111.447H166.164L162.664 107.114Z" fill="#6F7988" stroke="#6F7988" stroke-width="1.2" stroke-linecap="round" stroke-linejoin="round"/>
<path d="M145.664 96.28V122.28" stroke="#505967" stroke-width="0.5"/>
<path d="M230.664 51.28H59.6641C56.3504 51.28 53.6641 53.9663 53.6641 57.28V79.28C53.6641 82.5937 56.3504 85.28 59.6641 85.28H230.664C233.978 85.28 236.664 82.5937 236.664 79.28V57.28C236.664 53.9663 233.978 51.28 230.664 51.28Z" fill="#26282D"/>
<path d="M230.664 51.53H59.6641C56.4884 51.53 53.9141 54.1044 53.9141 57.28V79.28C53.9141 82.4557 56.4884 85.03 59.6641 85.03H230.664C233.84 85.03 236.414 82.4557 236.414 79.28V57.28C236.414 54.1044 233.84 51.53 230.664 51.53Z" stroke="#505967" stroke-width="0.5"/>
<path d="M105.664 65.28H86.6641C85.0072 65.28 83.6641 66.6232 83.6641 68.28C83.6641 69.9369 85.0072 71.28 86.6641 71.28H105.664C107.321 71.28 108.664 69.9369 108.664 68.28C108.664 66.6232 107.321 65.28 105.664 65.28Z" fill="#505967"/>
<path d="M65.6641 68.8174L70.4088 63.447V67.7433H73.4921L68.4088 73.1137V68.8174H65.6641Z" fill="#6F7988" stroke="#6F7988" stroke-width="1.2" stroke-linecap="round" stroke-linejoin="round"/>
<path d="M216.664 65.28H179.664C178.007 65.28 176.664 66.6232 176.664 68.28C176.664 69.9369 178.007 71.28 179.664 71.28H216.664C218.321 71.28 219.664 69.9369 219.664 68.28C219.664 66.6232 218.321 65.28 216.664 65.28Z" fill="#505967"/>
<path d="M162.664 70.4463L166.164 66.113H159.164L162.664 70.4463Z" fill="#6B9FFF" stroke="#6B9FFF" stroke-width="1.2" stroke-linecap="round" stroke-linejoin="round"/>
<path d="M145.664 55.28V81.28" stroke="#505967" stroke-width="0.5"/>
</svg>
