<svg width="290" height="151" viewBox="0 0 290 151" fill="none" xmlns="http://www.w3.org/2000/svg">
<path d="M284 25.28H5V113.28H284V25.28Z" stroke="#505967" stroke-width="0.5" stroke-linecap="round" stroke-dasharray="4 4"/>
<path d="M8 20.28H3C1.89543 20.28 1 21.1755 1 22.28V27.28C1 28.3846 1.89543 29.28 3 29.28H8C9.10457 29.28 10 28.3846 10 27.28V22.28C10 21.1755 9.10457 20.28 8 20.28Z" fill="#26282D" stroke="#505967" stroke-width="0.5"/>
<path d="M286 20.28H281C279.895 20.28 279 21.1755 279 22.28V27.28C279 28.3846 279.895 29.28 281 29.28H286C287.105 29.28 288 28.3846 288 27.28V22.28C288 21.1755 287.105 20.28 286 20.28Z" fill="#26282D" stroke="#505967" stroke-width="0.5"/>
<path d="M8 108.28H3C1.89543 108.28 1 109.175 1 110.28V115.28C1 116.385 1.89543 117.28 3 117.28H8C9.10457 117.28 10 116.385 10 115.28V110.28C10 109.175 9.10457 108.28 8 108.28Z" fill="#26282D" stroke="#505967" stroke-width="0.5"/>
<path d="M286 108.28H281C279.895 108.28 279 109.175 279 110.28V115.28C279 116.385 279.895 117.28 281 117.28H286C287.105 117.28 288 116.385 288 115.28V110.28C288 109.175 287.105 108.28 286 108.28Z" fill="#26282D" stroke="#505967" stroke-width="0.5"/>
<path d="M230.336 92.28H59.3359C56.0222 92.28 53.3359 94.9663 53.3359 98.28V120.28C53.3359 123.594 56.0222 126.28 59.3359 126.28H230.336C233.65 126.28 236.336 123.594 236.336 120.28V98.28C236.336 94.9663 233.65 92.28 230.336 92.28Z" fill="#26282D"/>
<path d="M230.336 92.53H59.3359C56.1603 92.53 53.5859 95.1044 53.5859 98.28V120.28C53.5859 123.456 56.1603 126.03 59.3359 126.03H230.336C233.512 126.03 236.086 123.456 236.086 120.28V98.28C236.086 95.1044 233.512 92.53 230.336 92.53Z" stroke="#505967" stroke-width="0.5"/>
<path d="M225.795 106.261L219.312 112.743" stroke="#6B9FFF" stroke-width="0.933332" stroke-linecap="round" stroke-linejoin="round"/>
<path d="M219.312 106.261L225.795 112.743" stroke="#6B9FFF" stroke-width="0.933332" stroke-linecap="round" stroke-linejoin="round"/>
<path d="M171.336 106.28H86.3359C84.6791 106.28 83.3359 107.623 83.3359 109.28C83.3359 110.937 84.6791 112.28 86.3359 112.28H171.336C172.993 112.28 174.336 110.937 174.336 109.28C174.336 107.623 172.993 106.28 171.336 106.28Z" fill="#505967"/>
<path fill-rule="evenodd" clip-rule="evenodd" d="M69.3359 115.28C72.6496 115.28 75.3359 112.594 75.3359 109.28C75.3359 105.966 72.6496 103.28 69.3359 103.28C66.0222 103.28 63.3359 105.966 63.3359 109.28C63.3359 112.594 66.0222 115.28 69.3359 115.28ZM72.737 107.724C72.9825 107.502 73.0011 107.122 72.7785 106.877C72.5559 106.631 72.1765 106.613 71.931 106.836L67.9358 110.458L66.7514 109.311C66.5134 109.08 66.1336 109.086 65.903 109.324C65.6725 109.562 65.6785 109.942 65.9165 110.173L67.5048 111.711C67.7319 111.931 68.0909 111.937 68.3252 111.724L72.737 107.724Z" fill="#6F7988"/>
<path d="M230.336 10.28H176.336C173.022 10.28 170.336 12.9663 170.336 16.28V38.28C170.336 41.5937 173.022 44.28 176.336 44.28H230.336C233.65 44.28 236.336 41.5937 236.336 38.28V16.28C236.336 12.9663 233.65 10.28 230.336 10.28Z" fill="#26282D"/>
<path d="M230.336 10.53H176.336C173.16 10.53 170.586 13.1044 170.586 16.28V38.28C170.586 41.4557 173.16 44.03 176.336 44.03H230.336C233.512 44.03 236.086 41.4557 236.086 38.28V16.28C236.086 13.1044 233.512 10.53 230.336 10.53Z" stroke="#505967" stroke-width="0.5"/>
<path d="M224.963 26.2986L222.556 28.706L220.148 26.2986" stroke="#6B9FFF" stroke-width="1.08333" stroke-linecap="round" stroke-linejoin="round"/>
<path d="M205.336 24.28H183.336C181.679 24.28 180.336 25.6232 180.336 27.28C180.336 28.9369 181.679 30.28 183.336 30.28H205.336C206.993 30.28 208.336 28.9369 208.336 27.28C208.336 25.6232 206.993 24.28 205.336 24.28Z" fill="#505967"/>
<path d="M157.336 10.28H59.3359C56.0222 10.28 53.3359 12.9663 53.3359 16.28V38.28C53.3359 41.5937 56.0222 44.28 59.3359 44.28H157.336C160.65 44.28 163.336 41.5937 163.336 38.28V16.28C163.336 12.9663 160.65 10.28 157.336 10.28Z" fill="#26282D"/>
<path d="M157.336 10.53H59.3359C56.1603 10.53 53.5859 13.1044 53.5859 16.28V38.28C53.5859 41.4557 56.1603 44.03 59.3359 44.03H157.336C160.512 44.03 163.086 41.4557 163.086 38.28V16.28C163.086 13.1044 160.512 10.53 157.336 10.53Z" stroke="#505967" stroke-width="0.5"/>
<path d="M146.963 26.2986L144.556 28.706L142.148 26.2986" stroke="#6B9FFF" stroke-width="1.08333" stroke-linecap="round" stroke-linejoin="round"/>
<path d="M65.3359 27.8174L70.0806 22.447V26.7433H73.1639L68.0806 32.1137V27.8174H65.3359Z" fill="#6F7988" stroke="#6F7988" stroke-width="1.2" stroke-linecap="round" stroke-linejoin="round"/>
<path d="M113.336 51.28H59.3359C56.0222 51.28 53.3359 53.9663 53.3359 57.28V79.28C53.3359 82.5937 56.0222 85.28 59.3359 85.28H113.336C116.65 85.28 119.336 82.5937 119.336 79.28V57.28C119.336 53.9663 116.65 51.28 113.336 51.28Z" fill="#26282D"/>
<path d="M113.336 51.53H59.3359C56.1603 51.53 53.5859 54.1044 53.5859 57.28V79.28C53.5859 82.4557 56.1603 85.03 59.3359 85.03H113.336C116.512 85.03 119.086 82.4557 119.086 79.28V57.28C119.086 54.1044 116.512 51.53 113.336 51.53Z" stroke="#505967" stroke-width="0.5"/>
<path d="M66.8333 67.7803L64.5 65.6137L66.8333 63.447" stroke="#6B9FFF" stroke-width="1.2" stroke-linecap="round" stroke-linejoin="round"/>
<path d="M64.5 65.613H71.5" stroke="#6B9FFF" stroke-width="1.2" stroke-linecap="round" stroke-linejoin="round"/>
<path d="M71.8359 68.78L74.1692 70.9467L71.8359 73.1133" stroke="#6B9FFF" stroke-width="1.2" stroke-linecap="round" stroke-linejoin="round"/>
<path d="M74.1641 70.947H67.1641" stroke="#6B9FFF" stroke-width="1.2" stroke-linecap="round" stroke-linejoin="round"/>
<path d="M102.336 65.28H86.3359C84.6791 65.28 83.3359 66.6232 83.3359 68.28C83.3359 69.9369 84.6791 71.28 86.3359 71.28H102.336C103.993 71.28 105.336 69.9369 105.336 68.28C105.336 66.6232 103.993 65.28 102.336 65.28Z" fill="#505967"/>
<path d="M230.336 51.28H132.336C129.022 51.28 126.336 53.9663 126.336 57.28V79.28C126.336 82.5937 129.022 85.28 132.336 85.28H230.336C233.65 85.28 236.336 82.5937 236.336 79.28V57.28C236.336 53.9663 233.65 51.28 230.336 51.28Z" fill="#26282D"/>
<path d="M230.336 51.53H132.336C129.16 51.53 126.586 54.1044 126.586 57.28V79.28C126.586 82.4557 129.16 85.03 132.336 85.03H230.336C233.512 85.03 236.086 82.4557 236.086 79.28V57.28C236.086 54.1044 233.512 51.53 230.336 51.53Z" stroke="#505967" stroke-width="0.5"/>
<path d="M224.963 67.2986L222.556 69.706L220.148 67.2986" stroke="#6B9FFF" stroke-width="1.08333" stroke-linecap="round" stroke-linejoin="round"/>
<path d="M195.336 65.28H158.336C156.679 65.28 155.336 66.6232 155.336 68.28C155.336 69.9369 156.679 71.28 158.336 71.28H195.336C196.993 71.28 198.336 69.9369 198.336 68.28C198.336 66.6232 196.993 65.28 195.336 65.28Z" fill="#505967"/>
<path d="M143.497 65.6137C143.497 66.8103 142.527 67.7803 141.331 67.7803C140.134 67.7803 139.164 66.8103 139.164 65.6137C139.164 64.417 140.134 63.447 141.331 63.447C142.527 63.447 143.497 64.417 143.497 65.6137Z" fill="#6F7988" stroke="#6F7988" stroke-width="1.2" stroke-linecap="round" stroke-linejoin="round"/>
<path d="M137.896 73.113H144.765C145.527 73.113 146.113 72.4584 145.758 71.7853C145.235 70.795 144.042 69.613 141.331 69.613C138.619 69.613 137.426 70.795 136.903 71.7853C136.548 72.4584 137.134 73.113 137.896 73.113Z" fill="#6F7988" stroke="#6F7988" stroke-width="1.2" stroke-linecap="round" stroke-linejoin="round"/>
</svg>
