<svg width="289" height="152" viewBox="0 0 289 152" fill="none" xmlns="http://www.w3.org/2000/svg">
<path d="M284 26.28H5V114.28H284V26.28Z" stroke="#505967" stroke-width="0.5" stroke-linecap="round" stroke-dasharray="4 4"/>
<path d="M8 21.28H3C1.89543 21.28 1 22.1755 1 23.28V28.28C1 29.3846 1.89543 30.28 3 30.28H8C9.10457 30.28 10 29.3846 10 28.28V23.28C10 22.1755 9.10457 21.28 8 21.28Z" fill="#26282D" stroke="#505967" stroke-width="0.5"/>
<path d="M286 21.28H281C279.895 21.28 279 22.1755 279 23.28V28.28C279 29.3846 279.895 30.28 281 30.28H286C287.105 30.28 288 29.3846 288 28.28V23.28C288 22.1755 287.105 21.28 286 21.28Z" fill="#26282D" stroke="#505967" stroke-width="0.5"/>
<path d="M8 109.28H3C1.89543 109.28 1 110.175 1 111.28V116.28C1 117.385 1.89543 118.28 3 118.28H8C9.10457 118.28 10 117.385 10 116.28V111.28C10 110.175 9.10457 109.28 8 109.28Z" fill="#26282D" stroke="#505967" stroke-width="0.5"/>
<path d="M286 109.28H281C279.895 109.28 279 110.175 279 111.28V116.28C279 117.385 279.895 118.28 281 118.28H286C287.105 118.28 288 117.385 288 116.28V111.28C288 110.175 287.105 109.28 286 109.28Z" fill="#26282D" stroke="#505967" stroke-width="0.5"/>
<path d="M154 93.28H116C112.686 93.28 110 95.9663 110 99.28V121.28C110 124.594 112.686 127.28 116 127.28H154C157.314 127.28 160 124.594 160 121.28V99.28C160 95.9663 157.314 93.28 154 93.28Z" fill="#26282D"/>
<path d="M154 93.53H116C112.824 93.53 110.25 96.1044 110.25 99.28V121.28C110.25 124.456 112.824 127.03 116 127.03H154C157.176 127.03 159.75 124.456 159.75 121.28V99.28C159.75 96.1044 157.176 93.53 154 93.53Z" stroke="#383E47" stroke-width="0.5"/>
<path d="M131 118.28H117C115.895 118.28 115 119.175 115 120.28C115 121.385 115.895 122.28 117 122.28H131C132.105 122.28 133 121.385 133 120.28C133 119.175 132.105 118.28 131 118.28Z" fill="#383E47"/>
<path d="M97 93.28H59C55.6863 93.28 53 95.9663 53 99.28V121.28C53 124.594 55.6863 127.28 59 127.28H97C100.314 127.28 103 124.594 103 121.28V99.28C103 95.9663 100.314 93.28 97 93.28Z" fill="#26282D"/>
<path d="M97 93.53H59C55.8244 93.53 53.25 96.1044 53.25 99.28V121.28C53.25 124.456 55.8244 127.03 59 127.03H97C100.176 127.03 102.75 124.456 102.75 121.28V99.28C102.75 96.1044 100.176 93.53 97 93.53Z" stroke="#383E47" stroke-width="0.5"/>
<path d="M73 118.28H60C58.8954 118.28 58 119.175 58 120.28C58 121.385 58.8954 122.28 60 122.28H73C74.1046 122.28 75 121.385 75 120.28C75 119.175 74.1046 118.28 73 118.28Z" fill="#383E47"/>
<path d="M90 52.28H59C55.6863 52.28 53 54.9663 53 58.28V80.28C53 83.5937 55.6863 86.28 59 86.28H90C93.3137 86.28 96 83.5937 96 80.28V58.28C96 54.9663 93.3137 52.28 90 52.28Z" fill="#26282D"/>
<path d="M90 52.53H59C55.8244 52.53 53.25 55.1044 53.25 58.28V80.28C53.25 83.4557 55.8244 86.03 59 86.03H90C93.1756 86.03 95.75 83.4557 95.75 80.28V58.28C95.75 55.1044 93.1756 52.53 90 52.53Z" stroke="#383E47" stroke-width="0.5"/>
<path d="M73 77.28H60C58.8954 77.28 58 78.1755 58 79.28C58 80.3846 58.8954 81.28 60 81.28H73C74.1046 81.28 75 80.3846 75 79.28C75 78.1755 74.1046 77.28 73 77.28Z" fill="#383E47"/>
<path d="M111 11.28H59C55.6863 11.28 53 13.9663 53 17.28V39.28C53 42.5937 55.6863 45.28 59 45.28H111C114.314 45.28 117 42.5937 117 39.28V17.28C117 13.9663 114.314 11.28 111 11.28Z" fill="#26282D"/>
<path d="M111 11.53H59C55.8244 11.53 53.25 14.1044 53.25 17.28V39.28C53.25 42.4557 55.8244 45.03 59 45.03H111C114.176 45.03 116.75 42.4557 116.75 39.28V17.28C116.75 14.1044 114.176 11.53 111 11.53Z" stroke="#383E47" stroke-width="0.5"/>
<path d="M73 36.28H60C58.8954 36.28 58 37.1755 58 38.28C58 39.3846 58.8954 40.28 60 40.28H73C74.1046 40.28 75 39.3846 75 38.28C75 37.1755 74.1046 36.28 73 36.28Z" fill="#383E47"/>
<path d="M62 18.28C62 17.1755 61.1046 16.28 60 16.28C58.8954 16.28 58 17.1755 58 18.28C58 19.3846 58.8954 20.28 60 20.28C61.1046 20.28 62 19.3846 62 18.28Z" fill="#383E47"/>
<path d="M230 93.28H173C169.686 93.28 167 95.9663 167 99.28V121.28C167 124.594 169.686 127.28 173 127.28H230C233.314 127.28 236 124.594 236 121.28V99.28C236 95.9663 233.314 93.28 230 93.28Z" fill="#26282D"/>
<path d="M230 93.53H173C169.824 93.53 167.25 96.1044 167.25 99.28V121.28C167.25 124.456 169.824 127.03 173 127.03H230C233.176 127.03 235.75 124.456 235.75 121.28V99.28C235.75 96.1044 233.176 93.53 230 93.53Z" stroke="#383E47" stroke-width="0.5"/>
<path d="M189 118.28H174C172.895 118.28 172 119.175 172 120.28C172 121.385 172.895 122.28 174 122.28H189C190.105 122.28 191 121.385 191 120.28C191 119.175 190.105 118.28 189 118.28Z" fill="#383E47"/>
<path d="M220.984 100.366C220.984 99.7584 221.477 99.2659 222.084 99.2659C222.692 99.2659 223.184 99.7584 223.184 100.366V101.466H222.084C221.477 101.466 220.984 100.973 220.984 100.366Z" stroke="#6F7988" stroke-width="1.13143" stroke-linecap="round" stroke-linejoin="round"/>
<path d="M227.898 100.366C227.898 99.7584 228.391 99.2659 228.998 99.2659C229.606 99.2659 230.098 99.7584 230.098 100.366C230.098 100.973 229.606 101.466 228.998 101.466H227.898V100.366Z" stroke="#6F7988" stroke-width="1.13143" stroke-linecap="round" stroke-linejoin="round"/>
<path d="M227.898 106.18H228.998C229.606 106.18 230.098 106.672 230.098 107.28C230.098 107.887 229.606 108.38 228.998 108.38C228.391 108.38 227.898 107.887 227.898 107.28V106.18Z" stroke="#6F7988" stroke-width="1.13143" stroke-linecap="round" stroke-linejoin="round"/>
<path d="M220.984 107.28C220.984 106.672 221.477 106.18 222.084 106.18H223.184V107.28C223.184 107.887 222.692 108.38 222.084 108.38C221.477 108.38 220.984 107.887 220.984 107.28Z" stroke="#6F7988" stroke-width="1.13143" stroke-linecap="round" stroke-linejoin="round"/>
<path d="M223.188 101.466H227.901V106.18H223.188V101.466Z" stroke="#6F7988" stroke-width="1.13143" stroke-linecap="round" stroke-linejoin="round"/>
<path d="M131 52.28H109C105.686 52.28 103 54.9663 103 58.28V80.28C103 83.5937 105.686 86.28 109 86.28H131C134.314 86.28 137 83.5937 137 80.28V58.28C137 54.9663 134.314 52.28 131 52.28Z" fill="#26282D"/>
<path d="M131 52.53H109C105.824 52.53 103.25 55.1044 103.25 58.28V80.28C103.25 83.4557 105.824 86.03 109 86.03H131C134.176 86.03 136.75 83.4557 136.75 80.28V58.28C136.75 55.1044 134.176 52.53 131 52.53Z" stroke="#383E47" stroke-width="0.5"/>
<path d="M116.665 74.2798V73.1846L121.02 67.0738H116.656V65.5525H123.338V66.6477L118.979 72.7585H123.347V74.2798H116.665Z" fill="#9098A0"/>
<path d="M172 52.28H150C146.686 52.28 144 54.9663 144 58.28V80.28C144 83.5937 146.686 86.28 150 86.28H172C175.314 86.28 178 83.5937 178 80.28V58.28C178 54.9663 175.314 52.28 172 52.28Z" fill="#26282D"/>
<path d="M172 52.53H150C146.824 52.53 144.25 55.1044 144.25 58.28V80.28C144.25 83.4557 146.824 86.03 150 86.03H172C175.176 86.03 177.75 83.4557 177.75 80.28V58.28C177.75 55.1044 175.176 52.53 172 52.53Z" stroke="#383E47" stroke-width="0.5"/>
<path d="M159.181 65.5525L161.103 68.7486H161.171L163.101 65.5525H164.904L162.215 69.9162L164.946 74.2798H163.114L161.171 71.1051H161.103L159.16 74.2798H157.336L160.093 69.9162L157.37 65.5525H159.181Z" fill="#6B9FFF"/>
<path d="M152 11.28H130C126.686 11.28 124 13.9663 124 17.28V39.28C124 42.5937 126.686 45.28 130 45.28H152C155.314 45.28 158 42.5937 158 39.28V17.28C158 13.9663 155.314 11.28 152 11.28Z" fill="#26282D"/>
<path d="M152 11.53H130C126.824 11.53 124.25 14.1044 124.25 17.28V39.28C124.25 42.4557 126.824 45.03 130 45.03H152C155.176 45.03 157.75 42.4557 157.75 39.28V17.28C157.75 14.1044 155.176 11.53 152 11.53Z" stroke="#383E47" stroke-width="0.5"/>
<path d="M138.985 33.2798H137.297L140.369 24.5525H142.321L145.398 33.2798H143.71L141.379 26.3423H141.311L138.985 33.2798ZM139.04 29.8579H143.642V31.1278H139.04V29.8579Z" fill="#6B9FFF"/>
<path d="M193 11.28H171C167.686 11.28 165 13.9663 165 17.28V39.28C165 42.5937 167.686 45.28 171 45.28H193C196.314 45.28 199 42.5937 199 39.28V17.28C199 13.9663 196.314 11.28 193 11.28Z" fill="#26282D"/>
<path d="M193 11.53H171C167.824 11.53 165.25 14.1044 165.25 17.28V39.28C165.25 42.4557 167.824 45.03 171 45.03H193C196.176 45.03 198.75 42.4557 198.75 39.28V17.28C198.75 14.1044 196.176 11.53 193 11.53Z" stroke="#383E47" stroke-width="0.5"/>
<path d="M183.606 26.9518C183.566 26.5796 183.398 26.2898 183.103 26.0826C182.81 25.8752 182.43 25.7715 181.961 25.7715C181.631 25.7715 181.349 25.8211 181.113 25.9205C180.877 26.02 180.697 26.1549 180.572 26.3254C180.447 26.4958 180.383 26.6904 180.38 26.9092C180.38 27.091 180.421 27.2486 180.503 27.3822C180.589 27.5157 180.704 27.6293 180.849 27.7231C180.993 27.814 181.154 27.8907 181.33 27.9532C181.506 28.0157 181.684 28.0683 181.863 28.1109L182.681 28.3154C183.011 28.3921 183.327 28.4958 183.631 28.6265C183.938 28.7572 184.212 28.9219 184.454 29.1208C184.698 29.3197 184.891 29.5597 185.033 29.841C185.175 30.1222 185.246 30.4518 185.246 30.8296C185.246 31.341 185.116 31.7913 184.854 32.1805C184.593 32.5668 184.215 32.8694 183.721 33.0882C183.229 33.3041 182.634 33.412 181.935 33.412C181.256 33.412 180.667 33.3069 180.167 33.0967C179.67 32.8864 179.28 32.5796 178.999 32.1762C178.721 31.7728 178.57 31.2813 178.547 30.7018H180.103C180.126 31.0058 180.219 31.2586 180.384 31.4604C180.549 31.6621 180.763 31.8126 181.028 31.912C181.295 32.0114 181.593 32.0611 181.922 32.0611C182.266 32.0611 182.567 32.01 182.826 31.9077C183.087 31.8026 183.292 31.6577 183.44 31.4731C183.587 31.2856 183.663 31.0668 183.665 30.8168C183.663 30.5896 183.596 30.4021 183.465 30.2543C183.334 30.1038 183.151 29.9788 182.915 29.8793C182.682 29.7771 182.41 29.6861 182.097 29.6066L181.104 29.3509C180.386 29.1663 179.817 28.8864 179.4 28.5114C178.985 28.1336 178.778 27.6322 178.778 27.0072C178.778 26.493 178.917 26.0427 179.195 25.6563C179.476 25.27 179.859 24.9702 180.341 24.7572C180.824 24.5413 181.371 24.4333 181.982 24.4333C182.601 24.4333 183.144 24.5413 183.61 24.7572C184.079 24.9702 184.447 25.2672 184.714 25.6479C184.981 26.0257 185.118 26.4603 185.127 26.9518H183.606Z" fill="#6B9FFF"/>
</svg>
