<svg width="289" height="151" viewBox="0 0 289 151" fill="none" xmlns="http://www.w3.org/2000/svg">
<path d="M284 25.22H5V113.22H284V25.22Z" stroke="#505967" stroke-width="0.5" stroke-linecap="round" stroke-dasharray="4 4"/>
<path d="M8 20.22H3C1.89543 20.22 1 21.1154 1 22.22V27.22C1 28.3245 1.89543 29.22 3 29.22H8C9.10457 29.22 10 28.3245 10 27.22V22.22C10 21.1154 9.10457 20.22 8 20.22Z" fill="#26282D" stroke="#505967" stroke-width="0.5"/>
<path d="M286 20.22H281C279.895 20.22 279 21.1154 279 22.22V27.22C279 28.3245 279.895 29.22 281 29.22H286C287.105 29.22 288 28.3245 288 27.22V22.22C288 21.1154 287.105 20.22 286 20.22Z" fill="#26282D" stroke="#505967" stroke-width="0.5"/>
<path d="M8 108.22H3C1.89543 108.22 1 109.115 1 110.22V115.22C1 116.325 1.89543 117.22 3 117.22H8C9.10457 117.22 10 116.325 10 115.22V110.22C10 109.115 9.10457 108.22 8 108.22Z" fill="#26282D" stroke="#505967" stroke-width="0.5"/>
<path d="M286 108.22H281C279.895 108.22 279 109.115 279 110.22V115.22C279 116.325 279.895 117.22 281 117.22H286C287.105 117.22 288 116.325 288 115.22V110.22C288 109.115 287.105 108.22 286 108.22Z" fill="#26282D" stroke="#505967" stroke-width="0.5"/>
<path d="M214 10.22H76C72.6863 10.22 70 12.9063 70 16.22V38.22C70 41.5337 72.6863 44.22 76 44.22H214C217.314 44.22 220 41.5337 220 38.22V16.22C220 12.9063 217.314 10.22 214 10.22Z" fill="#26282D"/>
<path d="M214 10.47H76C72.8244 10.47 70.25 13.0443 70.25 16.22V38.22C70.25 41.3956 72.8244 43.97 76 43.97H214C217.176 43.97 219.75 41.3956 219.75 38.22V16.22C219.75 13.0443 217.176 10.47 214 10.47Z" stroke="#505967" stroke-width="0.5"/>
<path d="M214 51.22H76C72.6863 51.22 70 53.9063 70 57.22V120.22C70 123.534 72.6863 126.22 76 126.22H214C217.314 126.22 220 123.534 220 120.22V57.22C220 53.9063 217.314 51.22 214 51.22Z" fill="#26282D"/>
<path d="M214 51.47H76C72.8244 51.47 70.25 54.0443 70.25 57.22V120.22C70.25 123.396 72.8244 125.97 76 125.97H214C217.176 125.97 219.75 123.396 219.75 120.22V57.22C219.75 54.0443 217.176 51.47 214 51.47Z" stroke="#505967" stroke-width="0.5"/>
<path d="M169 51.22V126.22" stroke="#505967" stroke-width="0.5"/>
<path d="M90.1615 24.5537C90.1615 25.7503 89.1914 26.7203 87.9948 26.7203C86.7982 26.7203 85.8281 25.7503 85.8281 24.5537C85.8281 23.357 86.7982 22.387 87.9948 22.387C89.1914 22.387 90.1615 23.357 90.1615 24.5537Z" fill="#6F7988" stroke="#6F7988" stroke-width="1.2" stroke-linecap="round" stroke-linejoin="round"/>
<path d="M84.5596 32.053H91.4296C92.1909 32.053 92.7773 31.3984 92.4218 30.7253C91.8988 29.735 90.7066 28.553 87.9946 28.553C85.2826 28.553 84.0904 29.735 83.5674 30.7253C83.2119 31.3984 83.7983 32.053 84.5596 32.053Z" fill="#6F7988" stroke="#6F7988" stroke-width="1.2" stroke-linecap="round" stroke-linejoin="round"/>
<path d="M149 24.22H103C101.343 24.22 100 25.5631 100 27.22C100 28.8768 101.343 30.22 103 30.22H149C150.657 30.22 152 28.8768 152 27.22C152 25.5631 150.657 24.22 149 24.22Z" fill="#505967"/>
<path d="M140 62.22H103C101.343 62.22 100 63.5631 100 65.22C100 66.8768 101.343 68.22 103 68.22H140C141.657 68.22 143 66.8768 143 65.22C143 63.5631 141.657 62.22 140 62.22Z" fill="#505967"/>
<path d="M90.0181 60.3923C90.0181 62.2365 89.024 63.8985 87.1797 63.8985C89.024 63.8985 90.0181 65.5605 90.0181 67.4048C90.0181 65.5605 91.0123 63.8985 92.8565 63.8985C91.0123 63.8985 90.0181 62.2365 90.0181 60.3923Z" fill="#6B9FFF" stroke="#6B9FFF"/>
<path d="M85.3424 65.7351C85.3424 66.8417 84.2784 67.9057 83.1719 67.9057C84.2784 67.9057 85.3424 68.9696 85.3424 70.0762C85.3424 68.9696 86.4064 67.9057 87.5129 67.9057C86.4064 67.9057 85.3424 66.8417 85.3424 65.7351Z" fill="#6B9FFF" stroke="#6B9FFF"/>
<path d="M90.0181 60.3923C90.0181 62.2365 89.024 63.8985 87.1797 63.8985C89.024 63.8985 90.0181 65.5605 90.0181 67.4048C90.0181 65.5605 91.0123 63.8985 92.8565 63.8985C91.0123 63.8985 90.0181 62.2365 90.0181 60.3923Z" stroke="#6B9FFF" stroke-width="1.20214" stroke-linecap="round" stroke-linejoin="round"/>
<path d="M85.3424 65.7351C85.3424 66.8417 84.2784 67.9057 83.1719 67.9057C84.2784 67.9057 85.3424 68.9696 85.3424 70.0762C85.3424 68.9696 86.4064 67.9057 87.5129 67.9057C86.4064 67.9057 85.3424 66.8417 85.3424 65.7351Z" stroke="#6B9FFF" stroke-width="1.20214" stroke-linecap="round" stroke-linejoin="round"/>
<path d="M127 85.22H103C101.343 85.22 100 86.5631 100 88.22C100 89.8768 101.343 91.22 103 91.22H127C128.657 91.22 130 89.8768 130 88.22C130 86.5631 128.657 85.22 127 85.22Z" fill="#505967"/>
<path fill-rule="evenodd" clip-rule="evenodd" d="M82.6676 84.6234C82.5699 84.8245 82.5156 85.0477 82.5156 85.2826V90.2438C82.5156 91.1303 83.2895 91.8489 84.2441 91.8489H90.8441C91.7988 91.8489 92.5727 91.1303 92.5727 90.2438V85.2826C92.5727 85.0477 92.5183 84.8245 92.4207 84.6234L87.8607 88.2835C87.6811 88.4277 87.4072 88.4277 87.2276 88.2835L82.6676 84.6234ZM91.8345 83.9669C91.554 83.7845 91.2125 83.6775 90.8441 83.6775H84.2441C83.8758 83.6775 83.5343 83.7845 83.2538 83.9669L87.5441 87.4106L91.8345 83.9669Z" fill="#6F7988"/>
<path d="M155 108.22H103C101.343 108.22 100 109.563 100 111.22C100 112.877 101.343 114.22 103 114.22H155C156.657 114.22 158 112.877 158 111.22C158 109.563 156.657 108.22 155 108.22Z" fill="#505967"/>
<path fill-rule="evenodd" clip-rule="evenodd" d="M87.2753 114.71C87.2754 114.71 87.2755 114.71 87.5406 114.32L87.2753 114.71ZM87.8062 114.71L87.8071 114.709L87.8099 114.707L87.8197 114.701L87.8554 114.676C87.8861 114.654 87.9304 114.623 87.9863 114.582C88.098 114.501 88.2564 114.383 88.4459 114.234C88.8242 113.937 89.3303 113.512 89.8382 113.004C90.3445 112.497 90.8632 111.898 91.2578 111.251C91.6502 110.608 91.9406 109.883 91.9406 109.135C91.9406 106.665 89.8747 104.735 87.5406 104.735C85.2065 104.735 83.1406 106.665 83.1406 109.135C83.1406 109.883 83.4309 110.608 83.8233 111.251C84.2179 111.898 84.7366 112.497 85.2429 113.004C85.7509 113.512 86.257 113.937 86.6353 114.234C86.8248 114.383 86.9832 114.501 87.0949 114.582C87.1508 114.623 87.195 114.654 87.2258 114.676L87.2615 114.701L87.2713 114.707L87.2741 114.709L87.2753 114.71C87.4353 114.819 87.6462 114.819 87.8062 114.71ZM87.5406 114.32L87.8062 114.71C87.8061 114.71 87.8057 114.71 87.5406 114.32ZM85.8136 109.135C85.8136 108.18 86.5875 107.406 87.5421 107.406C88.4968 107.406 89.2707 108.18 89.2707 109.135C89.2707 110.089 88.4968 110.863 87.5421 110.863C86.5875 110.863 85.8136 110.089 85.8136 109.135Z" fill="#6B9FFF"/>
</svg>
