<svg width="17" height="16" viewBox="0 0 17 16" fill="none" xmlns="http://www.w3.org/2000/svg">
<path fill-rule="evenodd" clip-rule="evenodd" d="M8.14453 0C3.72853 0 0.144531 3.584 0.144531 8C0.144531 12.416 3.72853 16 8.14453 16C12.5525 16 16.1445 12.416 16.1445 8C16.1445 3.584 12.5525 0 8.14453 0ZM13.4285 3.688C14.4134 4.88727 14.9585 6.38725 14.9735 7.939C14.7475 7.896 12.4915 7.436 10.2185 7.722C10.1665 7.61 10.1225 7.488 10.0705 7.367C9.93153 7.037 9.77553 6.698 9.62053 6.377C12.1355 5.354 13.2805 3.88 13.4285 3.688ZM8.14453 1.18C9.87953 1.18 11.4675 1.83 12.6745 2.898C12.5525 3.072 11.5195 4.451 9.09053 5.362C7.97053 3.306 6.73053 1.622 6.53953 1.362C7.06564 1.23914 7.60427 1.17806 8.14453 1.18ZM5.23753 1.822C6.15317 3.09107 6.99908 4.40902 7.77153 5.77C4.57853 6.62 1.75853 6.603 1.45453 6.603C1.67439 5.56873 2.13019 4.59922 2.78638 3.77008C3.44258 2.94095 4.28144 2.2746 5.23753 1.823V1.822ZM1.30753 8.009V7.8C1.60253 7.81 4.91753 7.852 8.32753 6.829C8.52653 7.21 8.70853 7.601 8.88253 7.991L8.61253 8.069C5.09053 9.206 3.21653 12.312 3.05953 12.573C1.93135 11.3206 1.30718 9.69462 1.30753 8.009ZM8.14453 14.837C6.62609 14.8393 5.15075 14.3323 3.95453 13.397C4.07453 13.145 5.46353 10.473 9.31553 9.128C9.33353 9.119 9.34153 9.119 9.35953 9.111C10.0089 10.7874 10.4968 12.5219 10.8165 14.291C9.97255 14.6537 9.06316 14.8395 8.14453 14.837ZM11.9545 13.666C11.8845 13.25 11.5195 11.254 10.6265 8.798C12.7695 8.46 14.6435 9.015 14.8775 9.093C14.7317 10.0156 14.3967 10.8982 13.8935 11.6851C13.3903 12.4721 12.7308 13.1465 11.9545 13.666Z" fill="#717A88"/>
</svg>
