<svg width="111" height="37" viewBox="0 0 111 37" fill="none" xmlns="http://www.w3.org/2000/svg">
<mask id="mask0_1_23388" style="mask-type:luminance" maskUnits="userSpaceOnUse" x="0" y="6" width="111" height="31">
<path d="M110.459 6.68945H0.203125V36.3105H110.459V6.68945Z" fill="white"/>
</mask>
<g mask="url(#mask0_1_23388)">
<path opacity="0.5" fill-rule="evenodd" clip-rule="evenodd" d="M80.5903 12.5952C80.146 13.0395 79.747 13.5274 79.3998 14.0515C78.5397 12.7547 77.3721 11.6909 76.001 10.955C74.6299 10.2191 73.0981 9.8339 71.542 9.83383H51.951V12.2307C50.2237 10.6866 47.9881 9.83298 45.6713 9.83301H35.5072C33.9513 9.83298 32.4196 10.218 31.0487 10.9538C29.6777 11.6896 28.5102 12.7533 27.6503 14.0499C26.7905 12.753 25.623 11.6892 24.2521 10.9534C22.8811 10.2176 21.3492 9.83269 19.7933 9.83301H0.203125V36.3109H19.7958C21.3519 36.311 22.8838 35.9259 24.2548 35.1897C25.6258 34.4536 26.7932 33.3895 27.6527 32.0924C28.5123 33.3895 29.6797 34.4536 31.0507 35.1897C32.4217 35.9259 33.9536 36.311 35.5097 36.3109H45.673C47.99 36.3109 50.2247 35.4576 51.9518 33.9141V36.3109H68.0335V31.2317H71.5444C72.8687 31.2319 74.1782 30.9531 75.3875 30.4134C76.5968 29.8737 77.6788 29.0852 78.563 28.0993H84.2996V36.3109H100.381V28.0993H106.847V9.83301H87.2559C86.0179 9.8331 84.792 10.0771 83.6483 10.551C82.5047 11.025 81.4655 11.7196 80.5903 12.5952Z" fill="#99A2AF"/>
<path d="M22.9421 8.26074H4.92188V31.5955H22.9421C25.026 31.5954 27.0245 30.7679 28.4985 29.295C29.9715 27.821 30.799 25.8224 30.7991 23.7386V16.1194C30.7992 15.0875 30.5961 14.0658 30.2013 13.1124C29.8064 12.1591 29.2277 11.2928 28.4981 10.5632C27.7685 9.83343 26.9023 9.25461 25.949 8.85971C24.9957 8.46481 23.974 8.26074 22.9421 8.26074Z" fill="#FAFAFA"/>
<path fill-rule="evenodd" clip-rule="evenodd" d="M3.34375 6.68945H22.9364C25.4368 6.68945 27.8347 7.68273 29.6028 9.45076C31.3708 11.2188 32.3641 13.6168 32.3641 16.1172V23.738C32.3641 26.2384 31.3708 28.6363 29.6028 30.4044C27.8347 32.1724 25.4368 33.1657 22.9364 33.1657H3.34458L3.34375 6.68945ZM6.48687 9.83257V30.0234H22.9364C23.7619 30.0234 24.5793 29.8608 25.3419 29.5449C26.1045 29.2289 26.7975 28.7659 27.3811 28.1821C27.9648 27.5984 28.4278 26.9054 28.7436 26.1427C29.0594 25.38 29.2219 24.5626 29.2218 23.7371V16.118C29.2212 14.8751 28.8524 13.6603 28.1619 12.6268C27.4715 11.5934 26.4903 10.7877 25.3423 10.3114C24.5795 9.99561 23.762 9.83317 22.9364 9.83339L6.48687 9.83257Z" fill="#383E47"/>
<path fill-rule="evenodd" clip-rule="evenodd" d="M19.4297 25.8077V15.4404H22.5729V25.8077H19.4297Z" fill="#383E47"/>
<path d="M74.6938 8.26074H56.6719V31.5955H69.6113V26.5164H74.6938C76.7769 26.5157 78.7746 25.6879 80.2476 24.2149C81.7206 22.7419 82.5484 20.7442 82.5491 18.661V16.1186C82.5492 15.0869 82.3461 14.0653 81.9514 13.1121C81.5567 12.1589 80.9781 11.2928 80.2487 10.5632C79.5192 9.83357 78.6532 9.2548 77.7001 8.85989C76.747 8.46498 75.7255 8.26085 74.6938 8.26074Z" fill="#FAFAFA"/>
<path fill-rule="evenodd" clip-rule="evenodd" d="M55.1016 6.68945H74.6942C77.1946 6.68945 79.5925 7.68273 81.3606 9.45076C83.1286 11.2188 84.1219 13.6168 84.1219 16.1172V18.6596C84.1215 21.1599 83.128 23.5576 81.3601 25.3255C79.5922 27.0935 77.1944 28.0869 74.6942 28.0873H71.1825V33.1657H55.1016V6.68945ZM58.2447 9.83257V30.0234H68.0393V24.945H74.6942C76.3609 24.9445 77.9592 24.2825 79.1382 23.1044C80.3163 21.9255 80.9783 20.3271 80.9788 18.6604V16.118C80.9785 14.4514 80.3168 12.8531 79.139 11.674C77.9598 10.4957 76.3612 9.83366 74.6942 9.83339L58.2439 9.83175L58.2447 9.83257Z" fill="#383E47"/>
<path fill-rule="evenodd" clip-rule="evenodd" d="M71.1875 21.7846V15.4375H74.3306V21.7846H71.1875Z" fill="#383E47"/>
<path d="M48.8172 8.26074H38.6531C37.0991 8.26005 35.5798 8.72051 34.2876 9.58381C32.9955 10.4472 31.9885 11.6745 31.3943 13.1104C30.9996 14.0636 30.7966 15.0852 30.7969 16.1169V23.7377C30.7972 25.8213 31.6249 27.8195 33.0981 29.2929C34.5714 30.7663 36.5695 31.5943 38.6531 31.5947H48.8172C50.901 31.5945 52.8995 30.7671 54.3736 29.2941C55.8469 27.8203 56.6747 25.8217 56.675 23.7377V16.1186C56.675 14.0346 55.8471 12.0359 54.3735 10.5623C52.8999 9.08861 50.9012 8.26074 48.8172 8.26074Z" fill="#FAFAFA"/>
<path fill-rule="evenodd" clip-rule="evenodd" d="M31.9854 9.45079C33.7535 7.68275 36.1514 6.68947 38.6518 6.68945H48.8184C50.0564 6.68945 51.2824 6.93331 52.4262 7.40709C53.57 7.88088 54.6093 8.57532 55.4848 9.45076C56.3602 10.3262 57.0547 11.3655 57.5284 12.5093C58.0022 13.6531 58.2461 14.8791 58.2461 16.1172V23.738C58.2461 26.2384 57.2528 28.6363 55.4848 30.4044C53.7167 32.1724 51.3188 33.1657 48.8184 33.1657H38.6543C36.1539 33.1657 33.7559 32.1724 31.9879 30.4044C30.2198 28.6363 29.2266 26.2384 29.2266 23.738V16.1188C29.226 14.8806 29.4694 13.6545 29.9428 12.5104C30.4161 11.3663 31.1102 10.3266 31.9854 9.45079ZM38.6518 9.83175C36.9848 9.83202 35.3861 10.494 34.207 11.6724C33.0287 12.8515 32.3667 14.4502 32.3664 16.1172V23.738C32.3666 25.405 33.029 27.0038 34.2079 28.1825C35.3868 29.3612 36.9856 30.0234 38.6526 30.0234H48.8184C50.0615 30.0231 51.2767 29.6543 52.3104 28.9637C53.344 28.273 54.1497 27.2915 54.6257 26.143C54.9414 25.3805 55.1039 24.5633 55.1038 23.738V16.1188C55.1034 14.8758 54.7346 13.6608 54.0442 12.6272C53.3537 11.5936 52.3724 10.7877 51.2243 10.3114C50.4615 9.99561 49.644 9.83317 48.8184 9.83339L38.6518 9.83175Z" fill="#383E47"/>
<path fill-rule="evenodd" clip-rule="evenodd" d="M42.1587 15.4404V25.8077H39.0156V15.4404H42.1587Z" fill="#383E47"/>
<path d="M108.427 8.26074H90.4039C89.3722 8.26057 88.3506 8.46373 87.3975 8.85862C86.4444 9.25351 85.5784 9.83237 84.8491 10.5622C84.1193 11.2914 83.5403 12.1574 83.1453 13.1105C82.7503 14.0636 82.547 15.0852 82.5469 16.1169V23.3831H89.0125V31.5947H101.952V23.3831H108.417L108.427 8.26074Z" fill="#FAFAFA"/>
<path fill-rule="evenodd" clip-rule="evenodd" d="M83.7383 9.45079C85.5066 7.6827 87.9049 6.68943 90.4055 6.68945H109.997V24.9541H103.532V33.1657H87.45V24.9541H80.9844V16.118C80.9824 13.6184 81.9729 11.2203 83.7383 9.45079ZM90.4055 9.83175C89.58 9.83175 88.7626 9.99435 88 10.3103C87.2373 10.6262 86.5444 11.0892 85.9608 11.673C85.3771 12.2567 84.9141 12.9497 84.5983 13.7124C84.2825 14.4751 84.12 15.2925 84.1201 16.118V21.8118H90.5857V30.0234H100.383V21.8118H106.848V9.83175H90.4055Z" fill="#383E47"/>
</g>
</svg>
