<svg width="147" height="40" viewBox="0 0 147 40" fill="none" xmlns="http://www.w3.org/2000/svg">
<g clip-path="url(#clip0_1_23363)">
<mask id="mask0_1_23363" style="mask-type:luminance" maskUnits="userSpaceOnUse" x="0" y="0" width="146" height="40">
<path d="M145.845 0.942139H0.710938V39.058H145.845V0.942139Z" fill="white"/>
</mask>
<g mask="url(#mask0_1_23363)">
<path d="M56.5333 25.2928C53.9662 25.2928 52.1122 23.231 52.1122 20.433C52.1122 17.6349 53.9662 15.5732 56.5333 15.5732C58.6726 15.5732 60.3269 16.9869 60.8119 19.1075H63.8638C63.2933 15.367 60.384 12.7751 56.5333 12.7751C52.2548 12.7751 49.1172 16.015 49.1172 20.433C49.1172 24.851 52.2548 28.0907 56.5333 28.0907C60.384 28.0907 63.2933 25.4989 63.8638 21.7583H60.8119C60.3269 23.8495 58.6726 25.2928 56.5333 25.2928Z" fill="#383E47"/>
<path d="M67.8828 27.7968L69.0523 24.8514H76.5825L77.7519 27.7968H80.8325L74.9851 13.0701H70.7067L64.8594 27.7968H67.8828ZM70.1077 22.2007L72.6748 15.721H72.96L75.5271 22.2007H70.1077Z" fill="#383E47"/>
<path d="M89.5255 25.2932C87.2152 25.2932 85.5322 23.3788 85.5322 20.728V13.0701H82.6797V20.728C82.6797 24.9692 85.5894 28.0912 89.5255 28.0912C93.4618 28.0912 96.3712 24.9692 96.3712 20.728V13.0701H93.5188V20.728C93.5188 23.3788 91.8359 25.2932 89.5255 25.2932Z" fill="#383E47"/>
<path d="M106.502 25.44C104.106 25.44 102.509 24.6152 102.509 23.3783H99.6562C99.6562 26.2057 102.395 28.0907 106.502 28.0907C110.952 28.0907 113.348 26.4119 113.348 23.2899C113.348 20.2856 111.351 18.9603 106.645 18.9603C103.935 18.9603 102.794 18.5185 102.794 17.3993C102.794 16.1034 104.078 15.4258 106.502 15.4258C108.727 15.4258 110.21 16.2506 110.21 17.4876H113.062C113.062 14.6601 110.438 12.7751 106.502 12.7751C102.224 12.7751 99.9416 14.3951 99.9416 17.3993C99.9416 20.374 101.881 21.6111 106.388 21.6111C109.24 21.6111 110.495 22.1117 110.495 23.2899C110.495 24.6742 109.098 25.44 106.502 25.44Z" fill="#383E47"/>
<path d="M118.226 27.7968L119.397 24.8514H126.926L128.095 27.7968H131.177L125.328 13.0701H121.051L115.203 27.7968H118.226ZM120.452 22.2007L123.019 15.721H123.304L125.871 22.2007H120.452Z" fill="#383E47"/>
<path d="M133.891 27.7968H145.301V25.146H136.744V13.0701H133.891V27.7968Z" fill="#383E47"/>
<path opacity="0.8" fill-rule="evenodd" clip-rule="evenodd" d="M19.1673 39.0581C29.3605 39.0581 37.6236 30.5256 37.6236 20.0001C37.6236 9.47467 29.3605 0.942139 19.1673 0.942139C8.9741 0.942139 0.710938 9.47467 0.710938 20.0001C0.710938 30.5256 8.9741 39.0581 19.1673 39.0581ZM19.1673 31.9336C25.5498 31.9336 30.724 26.5908 30.724 20.0001C30.724 13.4094 25.5498 8.06662 19.1673 8.06662C12.7847 8.06662 7.61049 13.4094 7.61049 20.0001C7.61049 26.5908 12.7847 31.9336 19.1673 31.9336Z" fill="#99A2AF"/>
</g>
</g>
<defs>
<clipPath id="clip0_1_23363">
<rect width="146" height="40" fill="white" transform="translate(0.171875)"/>
</clipPath>
</defs>
</svg>
