<svg width="191" height="37" viewBox="0 0 191 37" fill="none" xmlns="http://www.w3.org/2000/svg">
<mask id="mask0_1_23405" style="mask-type:luminance" maskUnits="userSpaceOnUse" x="0" y="0" width="191" height="40">
<path d="M190.188 0H0.1875V40H190.188V0Z" fill="white"/>
</mask>
<g mask="url(#mask0_1_23405)">
<mask id="mask1_1_23405" style="mask-type:luminance" maskUnits="userSpaceOnUse" x="0" y="10" width="191" height="20">
<path d="M190.188 10.8064H0.1875V29.1935H190.188V10.8064Z" fill="white"/>
</mask>
<g mask="url(#mask1_1_23405)">
<path d="M13.1938 10.8064V17.7793H5.37858V10.8064H0.1875V29.1935H5.37858V22.1633H13.1983V29.1935H18.3893V10.8064H13.1938Z" fill="#383E47"/>
<path d="M30.2185 16.3503L26.3507 10.8064H19.9688L27.462 21.1092V29.1935H32.6796V21.0827L40.1685 10.8064H34.0821L30.2185 16.3503Z" fill="#383E47"/>
<path d="M52.0792 10.8064H41.75V29.1935H46.9411V23.407H52.0792C56.8072 23.407 59.2991 21.215 59.2991 17.1089C59.2991 13.0028 56.8116 10.8064 52.0792 10.8064ZM53.9933 17.1133C53.9933 18.4673 53.2083 19.0848 51.4529 19.0848H46.9322V15.133H51.4529C53.2127 15.133 53.9933 15.724 53.9933 17.1045V17.1133Z" fill="#383E47"/>
<path d="M61.3203 29.1935H78.2788V24.9242H66.5115V21.9471H76.5187V17.9954H66.5115V15.0757H78.2788V10.8064H61.3203V29.1935Z" fill="#383E47"/>
<path d="M98.4365 16.8355C98.4365 12.8925 96.0852 10.8064 91.5651 10.8064H80.6094V29.1935H85.8007V22.8381H89.1257L93.2896 29.1935L93.3027 29.1847H99.3313L94.8112 22.375C97.1885 21.5635 98.4319 19.6979 98.4319 16.8311L98.4365 16.8355ZM90.8549 18.6217H85.8007V15.0492H90.8549C92.4208 15.0492 93.1525 15.6182 93.1525 16.8355C93.1525 18.0527 92.4208 18.6217 90.8549 18.6217Z" fill="#383E47"/>
<path d="M106.301 10.8064H101.109V29.1935H117.115V24.7875H106.301V10.8064Z" fill="#383E47"/>
<path d="M124.636 10.8064H119.445V29.1935H124.636V10.8064Z" fill="#383E47"/>
<path d="M141.088 21.0827L133.678 10.8064H127.781V29.1935H132.73V17.325L141.299 29.1935H146.036V10.8064H141.088V21.0827Z" fill="#383E47"/>
<path d="M149.188 29.1935H166.142V24.9242H154.38V21.9471H164.387V17.9954H154.38V15.0757H166.142V10.8064H149.188V29.1935Z" fill="#383E47"/>
<path d="M189.715 10.8064H171.328V29.1935H189.715V10.8064Z" fill="#383E47"/>
</g>
</g>
</svg>
