<svg width="126" height="40" viewBox="0 0 126 40" fill="none" xmlns="http://www.w3.org/2000/svg">
<mask id="mask0_1_23348" style="mask-type:luminance" maskUnits="userSpaceOnUse" x="1" y="2" width="125" height="33">
<path d="M125.244 2H1.16406V34.3307H125.244V2Z" fill="white"/>
</mask>
<g mask="url(#mask0_1_23348)">
<path d="M32.5018 14.253C32.5004 17.4701 31.2913 20.5592 29.1326 22.8607C26.974 25.1622 24.0369 26.4938 20.9484 26.571V13.4941H8.90625C9.11114 10.3113 10.4937 7.33534 12.7631 5.19265C15.0324 3.04994 18.0115 1.90753 21.0732 2.00586C24.1351 2.10419 27.0408 3.43558 29.179 5.71983C31.3173 8.00407 32.4856 11.0631 32.5018 14.253Z" fill="#99A2AF"/>
<path d="M20.9463 13.4941V26.5711H20.7419C19.1889 26.5711 17.6512 26.2524 16.2165 25.6333C14.7819 25.0141 13.4785 24.1066 12.3808 22.9627C11.2831 21.8187 10.4126 20.4607 9.81908 18.9662C9.22562 17.4718 8.92074 15.8702 8.92188 14.253C8.92188 14.0032 8.92188 13.744 8.92188 13.4941H20.9463Z" fill="#FAFAFB"/>
<path d="M20.947 26.5711V34.0305H1.16406V13.4941H8.90485C8.90485 13.744 8.90485 14.0032 8.90485 14.253C8.90366 15.8702 9.20854 17.4718 9.802 18.9662C10.3955 20.4607 11.266 21.8187 12.3637 22.9627C13.4614 24.1066 14.7648 25.0141 16.1995 25.6333C17.6341 26.2524 19.1719 26.5711 20.7248 26.5711H20.947Z" fill="#383E47"/>
<path d="M46.6562 10.2109H56.6039C61.7057 10.2109 64.894 12.5219 64.894 17.3562C64.894 22.1905 61.7057 24.7405 56.4002 24.7405H50.999V32.4037H46.6562V10.2109ZM56.1707 20.8358C58.9701 20.8358 60.5196 19.9526 60.5196 17.5156C60.5196 14.9988 58.9382 14.1156 56.317 14.1156H51.0308V20.8026L56.1707 20.8358Z" fill="#383E47"/>
<path d="M64.625 28.4197C64.625 26.0822 66.1171 24.6811 68.8018 23.924L75.6697 21.985L75.848 21.9319C75.848 21.9319 75.848 21.7924 75.848 21.7327C75.848 19.8467 74.7644 18.9967 72.8386 18.9967C70.9128 18.9967 69.3628 20.0592 68.4637 22.6756L64.9311 21.3076C66.3275 17.3897 69.2801 15.8691 73.017 15.8691C77.6849 15.8691 80.1655 18.326 80.1655 21.6397V27.324C80.1655 28.5127 80.5414 29.1502 81.5045 29.1502C82.0143 29.1382 82.5148 29.0017 82.9651 28.7517V32.072C81.9714 32.4844 80.9157 32.7093 79.8465 32.736C77.6529 32.736 75.9628 31.4943 75.9628 29.0904V28.7583H75.848C75.3155 29.9866 74.447 31.0245 73.352 31.7424C72.2564 32.4604 70.982 32.8267 69.6885 32.7958C66.3213 32.7427 64.625 30.5181 64.625 28.4197ZM70.9634 29.3295C72.1143 29.2839 73.2253 28.879 74.1523 28.1674C74.691 27.7622 75.1294 27.2293 75.4308 26.6126C75.7328 25.996 75.8889 25.3133 75.8863 24.6213C75.8863 24.5815 75.8863 24.349 75.8863 24.349L75.6314 24.4354L70.798 26.1685C69.6885 26.567 68.9296 26.8724 68.9296 27.749C68.9166 28.5127 69.5287 29.3295 70.9634 29.3295Z" fill="#383E47"/>
<path d="M84.6938 10.2109H89.0619V32.4037H84.6875L84.6938 10.2109Z" fill="#383E47"/>
<path d="M91.5312 10.2109H95.9124V32.4037H91.5312V10.2109Z" fill="#383E47"/>
<path d="M105.641 32.7421C100.508 32.7421 97.3516 29.4219 97.3516 24.5079C97.3516 19.3747 100.655 15.8154 105.762 15.8154C110.724 15.8154 114.02 19.0095 114.02 25.059H101.668C101.872 27.5625 103.039 29.3688 105.903 29.3688C108.033 29.3688 109.837 28.3661 110.424 26.1215L113.982 27.277C112.656 31.1219 109.404 32.7421 105.641 32.7421ZM109.525 22.3497C109.072 20.1318 107.714 19.0958 105.762 19.0958C104.833 19.024 103.912 19.3188 103.182 19.9216C102.452 20.5245 101.966 21.3912 101.821 22.3497H109.525Z" fill="#383E47"/>
<path d="M122.465 29.3619C120.686 29.3619 120.099 28.7842 120.099 26.7456V19.4609H124.767V16.207H113.289V19.4609H115.769V28.5186C115.769 31.1748 117.045 32.7088 120.794 32.7088C122.187 32.7246 123.577 32.5821 124.939 32.2838V29.0963C124.123 29.2565 123.295 29.3454 122.465 29.3619Z" fill="#383E47"/>
<path d="M115.719 10.2109C115.897 11.3595 116.418 12.4205 117.208 13.2431C117.998 14.0657 119.016 14.608 120.12 14.7929V10.2109H115.719Z" fill="#383E47"/>
</g>
</svg>
