<svg width="158" height="40" viewBox="0 0 158 40" fill="none" xmlns="http://www.w3.org/2000/svg">
<g clip-path="url(#clip0_1_23382)">
<mask id="mask0_1_23382" style="mask-type:luminance" maskUnits="userSpaceOnUse" x="1" y="0" width="157" height="40">
<path d="M157.648 0H1.64844V40H157.648V0Z" fill="white"/>
</mask>
<g mask="url(#mask0_1_23382)">
<path d="M58.0404 25.1907C58.0404 28.7096 54.3659 29.4583 51.5192 29.4583C49.0396 29.4583 46.4652 28.3449 45.5475 27.9061C45.3323 27.804 45.1974 27.5877 45.1974 27.3494V23.5899C45.1974 23.2884 45.539 23.1122 45.7833 23.2884C48.6385 25.3645 52.973 25.8483 52.973 24.679C52.973 23.4209 45.0564 23.7321 45.0564 18.1967C45.0564 15.1701 47.7427 13.5875 51.3357 13.5875C56.2804 13.5875 57.5603 16.907 57.6709 19.4961C57.6794 19.7051 57.5105 19.8789 57.3002 19.8789H52.7493C52.5451 19.8789 52.3786 19.7136 52.3786 19.5082V19.3709C52.3786 18.441 52.0638 17.9402 51.3466 17.9402C50.6878 17.9402 50.3147 18.4957 50.3147 18.9722C50.3147 21.8189 58.0416 20.2083 58.0416 25.1895L58.0404 25.1907ZM36.4567 18.9734C36.4567 18.4969 36.8311 17.9414 37.4887 17.9414C38.2058 17.9414 38.5207 18.4422 38.5207 19.3721V19.5094C38.5207 19.7136 38.686 19.8802 38.8914 19.8802H43.4422C43.6513 19.8802 43.8215 19.7063 43.813 19.4973C43.7024 16.9095 42.4224 13.5887 37.4778 13.5887C33.8847 13.5887 31.1985 15.1713 31.1985 18.1979C31.1985 23.7333 39.115 23.4221 39.115 24.6802C39.115 25.8495 34.7818 25.3657 31.9253 23.2896C31.6822 23.1122 31.3395 23.2896 31.3395 23.5911V27.3506C31.3395 27.5889 31.4756 27.8052 31.6895 27.9073C32.6072 28.3461 35.1817 29.4595 37.6613 29.4595C40.5092 29.4595 44.1825 28.712 44.1825 25.1919C44.1825 20.2108 36.4555 21.8213 36.4555 18.9746L36.4567 18.9734ZM62.3603 6.62996C60.1481 6.62996 58.7041 7.77618 58.7041 9.67359C58.7041 11.571 60.1493 12.7172 62.3603 12.7172C64.5713 12.7172 66.0165 11.571 66.0165 9.67359C66.0165 7.77618 64.5713 6.62996 62.3603 6.62996ZM15.5465 21.5187C15.5465 26.7052 14.0222 29.4583 10.9324 29.4583C9.46654 29.4583 8.14774 28.8396 7.33456 26.879L7.72594 32.9772C7.73934 33.1911 7.57037 33.371 7.35644 33.371H2.01917C1.81496 33.371 1.64844 33.2057 1.64844 33.0003V14.4031C1.64844 14.1989 1.81375 14.0324 2.01917 14.0324H5.60004C5.78358 14.0324 5.93916 14.1661 5.9659 14.3472L6.32812 16.8839C7.13765 14.7763 8.61083 13.5875 10.7306 13.5875C13.942 13.5875 15.5465 16.3321 15.5465 21.5187ZM10.0597 21.5235C10.0597 19.535 9.73034 17.9414 8.63514 17.9414C7.53998 17.9414 7.21058 19.535 7.21058 21.5235C7.21058 23.5121 7.53998 25.1251 8.63514 25.1251C9.73034 25.1251 10.0597 23.5121 10.0597 21.5235ZM29.8711 19.9798V28.6293C29.8711 28.8335 29.7058 29.0001 29.5004 29.0001H25.9195C25.736 29.0001 25.5804 28.8664 25.5537 28.6853L25.2571 26.7344C24.32 28.3984 22.5866 29.4595 20.7719 29.4595C18.0796 29.4595 16.5261 28.1164 16.5261 25.1615C16.5261 20.6763 20.84 19.9251 24.5983 19.9968C24.2616 18.9928 23.5748 18.4787 22.1746 18.4787C20.2699 18.4787 18.3895 19.6298 17.4682 20.2898C17.2226 20.4648 16.8835 20.2898 16.8835 19.9883V16.4585C16.8835 16.2653 16.9747 16.0829 17.129 15.9662C17.9179 15.367 20.5324 13.5899 23.7997 13.5899C27.7306 13.5899 29.8724 16.343 29.8724 19.981L29.8711 19.9798ZM24.8122 23.2811C24.8159 21.9028 24.732 21.0446 24.732 21.0446C24.0258 21.0312 22.6669 21.7836 22.662 23.4586C22.6584 24.4991 23.0084 25.2879 23.7754 25.3025C24.5302 25.3171 24.8098 24.4286 24.8122 23.2811ZM65.0393 14.0336H59.6777C59.4735 14.0336 59.307 14.1989 59.307 14.4043L59.3167 28.6293C59.3167 28.8335 59.482 29.0001 59.6874 29.0001H65.049C65.2532 29.0001 65.4197 28.8348 65.4197 28.6293L65.41 14.4043C65.41 14.2001 65.2447 14.0336 65.0393 14.0336ZM80.0653 21.5187C80.0653 27.1015 77.503 29.4583 73.3715 29.4583C69.2401 29.4583 66.6778 27.1015 66.6778 21.5187C66.6778 15.9359 69.2401 13.579 73.3715 13.579C77.503 13.579 80.0653 15.9359 80.0653 21.5187ZM74.7803 21.5187C74.7803 19.5301 74.4546 17.9414 73.3715 17.9414C72.2885 17.9414 71.9628 19.5301 71.9628 21.5187C71.9628 23.5072 72.2885 25.1202 73.3715 25.1202C74.4546 25.1202 74.7803 23.5072 74.7803 21.5187ZM131.246 21.5187C131.246 27.1015 128.684 29.4583 124.552 29.4583C120.421 29.4583 117.859 27.1015 117.859 21.5187C117.859 15.9359 120.421 13.579 124.552 13.579C128.684 13.579 131.246 15.9359 131.246 21.5187ZM125.961 21.5187C125.961 19.5301 125.635 17.9414 124.551 17.9414C123.467 17.9414 123.141 19.5301 123.141 21.5187C123.141 23.5072 123.467 25.1202 124.551 25.1202C125.635 25.1202 125.961 23.5072 125.961 21.5187ZM157.277 17.9414C157.481 17.9414 157.648 17.7761 157.648 17.5707V14.4019C157.648 14.1977 157.483 14.0312 157.277 14.0312H153.248V10.2801C153.248 10.0759 153.083 9.90939 152.877 9.90939H149.614C149.429 9.90939 149.271 10.0467 149.248 10.2303C148.939 12.6005 147.756 14.1989 146.185 14.5952C146.018 14.6365 145.9 14.7836 145.9 14.9549V17.5695C145.9 17.7737 146.065 17.9402 146.271 17.9402H147.13V25.1238C147.13 27.1489 148.552 29.4571 152.295 29.4571C155.247 29.4571 156.873 28.3522 157.427 27.8867C157.567 27.7688 157.647 27.5962 157.647 27.4138V24.3034C157.647 24.008 157.319 23.833 157.071 23.9946C156.525 24.3544 155.678 24.8151 154.929 24.8151C153.975 24.8151 153.247 24.4942 153.247 22.891V17.939H157.276L157.277 17.9414ZM145.545 21.5187C145.545 27.1015 142.983 29.4583 138.851 29.4583C134.72 29.4583 132.158 27.1015 132.158 21.5187C132.158 15.9359 134.72 13.579 138.851 13.579C142.983 13.579 145.545 15.9359 145.545 21.5187ZM140.26 21.5187C140.26 19.5301 139.934 17.9414 138.85 17.9414C137.766 17.9414 137.44 19.5301 137.44 21.5187C137.44 23.5072 137.766 25.1202 138.85 25.1202C139.934 25.1202 140.26 23.5072 140.26 21.5187ZM91.0474 13.5875C88.7671 13.5875 86.9596 14.5939 86.0553 16.901L85.67 14.3484C85.642 14.1673 85.4865 14.0336 85.3041 14.0336H81.7233C81.5191 14.0336 81.3525 14.1989 81.3525 14.4043V28.6293C81.3525 28.8335 81.5178 29.0001 81.7233 29.0001H87.0885C87.2927 29.0001 87.4592 28.8348 87.4592 28.6293L87.4653 19.1898C87.4653 18.3109 88.0585 17.9414 88.5738 17.9414C89.0892 17.9414 89.6714 18.2198 89.6714 19.1387V28.6281C89.6714 28.8323 89.8367 28.9989 90.0422 28.9989H95.4062C95.6104 28.9989 95.7769 28.8336 95.7769 28.6281V18.379C95.7769 15.4156 94.2174 13.5875 91.0486 13.5875H91.0474ZM118.694 14.7118L117.062 18.1177C116.963 18.3243 116.698 18.396 116.512 18.2611C116.233 18.0581 115.988 17.9426 115.468 17.9414C114.698 17.939 113.437 18.379 113.437 20.0588V28.6293C113.437 28.8335 113.271 29.0001 113.066 29.0001H107.702C107.498 29.0001 107.331 28.8348 107.331 28.6293V14.4031C107.331 14.1989 107.496 14.0324 107.702 14.0324H111.283C111.466 14.0324 111.622 14.1661 111.649 14.3472L112.047 16.8949C112.939 14.177 114.506 13.5875 116.213 13.5875C117.439 13.5875 118.205 13.9765 118.566 14.2414C118.715 14.3508 118.775 14.5441 118.694 14.7118ZM112.332 20.2399C112.332 20.2399 112.323 20.2314 112.319 20.2278V20.2399H112.332ZM105.603 12.3149C105.848 12.4607 106.154 12.2808 106.154 11.9952V8.26481C106.154 8.02414 106.009 7.80535 105.79 7.70446C100.792 5.3865 96.5889 7.07119 96.5889 10.3494C96.5889 12.97 99.4574 14.0324 99.4574 14.0324H97.7864C97.5831 14.0336 97.419 14.1989 97.419 14.4031V28.6281C97.419 28.8323 97.5844 28.9989 97.7894 28.9989H103.151C103.355 28.9989 103.522 28.8336 103.522 28.6281V17.9402H105.786C105.99 17.9402 106.157 17.7749 106.157 17.5695V14.4031C106.157 14.2013 105.992 14.0336 105.79 14.0336C104.472 14.0299 102.356 13.5523 102.356 12.3307C102.356 11.2173 104.118 11.4336 105.605 12.3149H105.603Z" fill="#383E47"/>
</g>
</g>
<defs>
<clipPath id="clip0_1_23382">
<rect width="157" height="40" fill="white" transform="translate(0.953125)"/>
</clipPath>
</defs>
</svg>
