<svg width="110" height="40" viewBox="0 0 110 40" fill="none" xmlns="http://www.w3.org/2000/svg">
<mask id="mask0_1_23330" style="mask-type:luminance" maskUnits="userSpaceOnUse" x="0" y="1" width="110" height="38">
<path d="M110 1.66675H0V38.3334H110V1.66675Z" fill="white"/>
</mask>
<g mask="url(#mask0_1_23330)">
<path d="M42.1108 33.5637C38.0378 30.933 32.5104 30.4717 23.5959 32.9508C14.0924 35.1902 10.9243 36.6261 6.76291 33.7443C5.16425 32.3289 4.59157 30.0497 5.01918 26.7666C6.0116 21.4142 8.69432 16.2637 13.459 10.5504C16.1187 7.5784 18.5857 5.02789 21.8434 4.00377C24.3402 3.36132 24.107 5.32878 23.8049 5.61005C23.4859 5.61005 22.9506 5.6604 22.5367 5.93143C22.2007 6.19309 21.2783 7.03604 21.2293 8.1708C21.1578 9.90762 22.9506 9.54615 23.7238 8.59257C24.5571 7.51781 25.7886 5.4599 24.8201 3.54191C24.4138 2.85906 23.7121 2.38754 22.8408 2.22656C19.858 2.05592 17.0799 3.48161 14.5159 5.05775C8.90886 8.9637 4.42344 14.3761 1.8855 20.3005C0.421977 23.8751 -0.901142 28.9951 1.08281 33.1621C2.61725 36.0536 5.80319 37.5897 9.60354 37.2689C12.269 36.9876 15.4923 36.1239 17.6604 35.602C19.8288 35.0799 30.9261 31.2544 34.5723 37.9122C34.5723 37.9122 35.7848 35.5523 38.8151 35.5016C41.3064 35.2713 44.9004 36.2254 47.5174 38.1528C46.6453 36.8378 44.1733 34.8998 42.1108 33.5637Z" fill="#383E47"/>
<path d="M24.7335 11.2234C22.6579 9.85772 18.4863 12.4683 15.1447 16.9464C12.089 20.9633 10.77 25.632 12.2057 27.7906C14.3415 30.3305 18.3065 26.6365 19.993 24.6585L20.2107 24.427C21.3572 23.1921 22.2431 21.7058 23.1004 20.2801C23.1004 20.2801 23.8882 18.9747 23.9258 18.9145C24.4133 18.8243 25 18.6838 25.6608 18.493C25.6515 18.5231 23.1313 22.7706 23.3885 24.8789C23.4685 25.5219 23.4072 27.8719 25.695 28.5843C28.744 29.0965 31.1786 26.7263 33.3263 24.6175C33.3263 24.6175 33.6926 24.2666 33.8996 24.0664C33.847 24.2762 33.7787 24.5572 33.7787 24.5572C32.8861 27.6703 34.0893 28.323 34.8424 28.5636C37.117 29.2271 39.8345 25.9127 39.8433 25.9127C39.7729 26.9567 39.5671 27.8204 40.6643 28.5132C41.6999 28.8849 42.7481 28.3183 43.5449 27.7862C46.4148 25.7578 48.7265 22.5842 50.594 19.8399H49.4028C49.3888 19.8399 46.4638 24.0913 44.5639 25.0153C44.561 25.0153 44.2154 25.1935 44.0163 25.0525C43.7697 24.8414 43.8669 24.403 44.0193 24.0924C44.0289 24.0728 51.3538 11.3338 51.3538 11.3338H47.8952C47.8952 11.3338 47.5172 11.9467 47.4869 11.9865C47.4635 11.9669 47.4081 11.8612 47.3698 11.8106C45.2271 8.83857 40.3751 13.4101 36.7221 18.7116C35.3155 20.7502 33.5248 23.0452 31.6684 24.7018C31.6684 24.7018 28.918 27.2307 27.7425 25.4139C27.3129 24.6509 27.4451 23.5343 27.6877 22.802C29.056 18.896 31.4139 15.3512 34.0969 13.212C34.8543 12.6204 35.6777 12.4492 36.0858 12.7001C36.4749 12.9313 36.5379 13.5029 36.2916 13.8948C35.6667 13.8752 35.1664 14.0652 34.7592 14.4869C33.9574 15.3305 33.6786 16.1438 33.9334 16.9072C35.1719 18.6742 37.6418 15.1803 37.5222 13.0516C37.4796 12.2882 37.0733 11.5653 36.4676 11.2138C35.5642 10.6717 34.1868 10.8122 33.2951 11.2442C32.1013 11.6958 30.2119 13.272 29.1089 14.4972C27.7201 16.0338 25.3389 17.7405 24.5943 17.5493C24.8383 16.8961 26.8494 12.7691 24.7335 11.2234ZM41.4066 17.3281C42.0794 16.3944 44.0376 13.8945 44.5143 13.4728C46.1197 12.0567 46.7615 12.6799 46.8173 13.1209C45.319 15.8116 43.5508 18.8946 41.8876 21.666C41.8914 21.6561 41.3672 22.4592 41.3672 22.4592C40.6331 23.5837 39.8935 24.5476 38.6874 25.2205C38.5158 25.2708 38.232 25.2907 38.0435 25.1502C37.8167 24.9992 37.7268 24.7483 37.7522 24.487C37.8249 23.6235 38.7017 20.9832 41.4066 17.3281ZM22.5931 18.9446C22.5931 18.9446 22.5627 19.0353 22.5481 19.0652C22.5443 19.0652 21.0403 21.5252 21.0403 21.5252C20.1328 22.7396 18.9991 24.2663 17.5826 24.9992C17.1628 25.1394 16.582 25.2301 16.2866 24.859C15.6599 24.1056 15.9828 23.061 16.2454 22.218L16.338 21.9169C17.091 19.8689 18.2854 18.0616 19.4477 16.3847C19.4626 16.3748 19.4947 16.3648 19.5067 16.3648C19.5093 16.3751 19.5137 16.3751 19.516 16.395C20.2457 17.8005 21.6135 18.4529 22.636 18.7549C22.6421 18.7549 22.6491 18.7649 22.6491 18.7854C22.6497 18.8141 22.6328 18.8545 22.5931 18.9446ZM24.0178 16.0432C24.0117 16.0631 23.3482 17.5892 23.3482 17.5892C23.2522 17.6694 23.1004 17.6295 22.927 17.5892L22.6293 17.5388C21.6941 17.2479 20.9889 16.6253 20.7717 15.8825C20.472 14.4369 21.7037 13.3021 22.2463 12.8903C22.7671 12.5285 23.577 12.3377 24.0467 12.7094C24.3365 13.051 24.4466 13.4927 24.4466 13.9747C24.4466 14.6271 24.2457 15.3603 24.0178 16.0432Z" fill="#383E47"/>
<path d="M67.7331 20.7013C67.3989 19.9783 66.6082 19.5168 65.7643 19.5668C63.0247 19.8177 60.3452 22.0769 58.938 25.3199C58.1998 26.9862 57.7967 28.3624 57.5329 30.5512C58.3846 29.5677 60.1222 27.9506 62.0939 27.067C62.0939 27.067 62.3624 24.9687 63.7305 23.1013C64.248 22.3272 65.2845 21.0829 66.4479 21.4137C67.4643 21.7556 67.107 24.5774 65.7565 27.3076C64.7565 29.3157 63.227 31.3251 61.6788 32.7104C60.3104 33.875 58.2859 35.2805 56.515 34.1961C55.3997 33.5334 54.8306 32.1478 54.9508 30.3606C55.4841 25.2901 57.7853 20.9723 61.0796 16.0522C64.4762 11.4839 68.2203 6.7947 73.2638 4.29425C74.2921 3.77209 75.2454 3.65151 76.0685 3.97317C76.0685 3.97317 71.3338 6.58367 69.0769 11.4133C68.5028 12.6388 67.7042 14.2949 68.5086 15.761C68.9284 16.5237 69.675 16.5843 70.2757 16.5439C73.0422 15.9012 74.8297 13.3109 76.2897 10.9412C77.1365 9.14384 77.889 7.35667 77.889 5.36872C77.889 5.12783 77.8767 4.80646 77.856 4.56558C79.178 3.86283 81.8878 5.10764 81.8878 5.10764C84.0058 5.81068 88.5148 9.27525 90.0364 9.93761C90.7784 9.07418 91.9979 7.76907 92.6841 7.11608L91.6905 6.50348C90.0995 5.5294 88.4173 4.60568 86.7615 3.69219C83.002 1.63399 79.9421 2.35664 78.3843 2.9189C77.7717 3.13988 77.2124 3.33072 77.2124 3.33072C76.0562 2.06542 74.1607 2.18571 72.7643 2.52728C67.7407 3.97288 63.0772 7.49716 58.0772 13.6123C54.4012 18.4019 52.1207 22.5388 50.9056 26.6253C49.9686 29.376 49.6837 33.4228 51.9704 35.8225C53.9146 37.8605 56.4923 37.4189 58.3128 36.6866C62.257 34.7381 65.8017 30.5412 67.5676 25.7113C67.9938 24.2762 68.4669 22.2479 67.7331 20.7013ZM76.8023 5.57009C76.2801 11.5746 71.626 15.0992 70.4739 15.3802C69.776 15.5204 68.5851 15.2092 69.6479 12.6895C71.2138 9.29545 73.8866 6.41421 76.7553 4.93788C76.8251 5.18871 76.823 5.34882 76.8023 5.57009Z" fill="#383E47"/>
<path d="M104.412 6.33339C101.909 7.75967 99.3132 8.68311 96.1713 8.36174C95.3009 9.34605 94.453 10.3599 93.6719 11.4043C98.0812 12.5288 102.756 10.0286 105.363 7.64933C108.121 5.24956 109.536 2.22754 109.536 2.22754C109.536 2.22754 107.468 4.59657 104.412 6.33339Z" fill="#383E47"/>
<path d="M57.0978 11.3337H53.8135L51.9609 14.3522H55.2447L57.0978 11.3337Z" fill="#383E47"/>
<path d="M96.1595 33.8433C95.806 34.0845 95.3101 33.8989 95.4954 33.3475C95.9578 31.9414 97.7946 29.0769 97.7946 29.0769L102.911 19.9771H99.4064C99.2397 20.2517 98.8833 20.881 98.8833 20.881C98.7213 20.6105 98.2365 20.0085 98.0369 19.8782C97.1808 19.3356 95.9248 19.592 95.0582 20.084C91.2905 22.2929 88.5409 26.6581 86.3725 30.0624C86.3725 30.0624 84.0906 33.8463 82.8235 34.1275C81.8343 34.208 81.9367 32.8722 81.9791 32.5605C82.3617 30.3111 83.2499 28.173 84.1446 26.2346C85.9642 24.9701 88.0415 23.3132 89.9286 21.4959C94.0243 17.5695 97.4779 13.1215 97.9829 12.1275C97.9829 12.1275 97.4365 12.2378 96.7911 12.2577C93.6402 16.6659 87.1913 23.0717 85.2365 24.0259C86.1025 21.937 91.6983 11.9665 96.4598 7.19711L97.2088 6.47387C98.3679 5.33941 99.5678 4.17479 100.503 3.98396C100.602 3.97371 100.729 3.98396 100.839 4.21518C100.881 5.09881 100.553 5.75151 100.176 6.49436L99.649 7.57907C99.649 7.57907 100.396 7.43858 100.886 7.27731C101.455 6.20343 102.085 4.99813 101.853 3.56278C101.775 3.10062 101.442 2.74939 101.007 2.66919C99.5865 2.39787 98.0377 3.45185 96.7926 4.30562L96.7418 4.33548C90.3384 9.36594 84.9312 16.6156 80.2041 26.5158C79.8614 26.7766 78.5377 27.088 78.313 26.937C78.78 25.9732 79.3675 24.6774 79.6618 23.2722C79.7128 22.8704 79.7601 22.4594 79.7601 22.0576C79.7601 21.1938 79.5532 20.3805 78.7811 19.8185C77.8757 19.3666 76.7572 19.5776 76.0027 19.9189C72.6235 21.325 70.0981 24.7992 68.2753 27.66C67.2954 29.4784 66.3176 31.4248 66.047 33.6543C65.8564 35.4013 66.2444 36.5258 67.2347 37.0881C68.2534 37.61 69.5354 37.0676 70.0389 36.8068C73.4624 34.9992 75.8544 31.3745 77.74 28.0609C77.815 28.0513 78.8439 28.0208 79.6227 27.8204C79.6329 27.8204 79.6375 27.8204 79.6548 27.8306C79.6101 27.981 79.2076 29.186 79.2076 29.186C78.0126 32.7001 77.4604 35.0902 78.5888 36.5056C80.2018 38.5041 82.8722 36.436 85.0444 33.704C84.5777 36.9775 86.2701 37.4902 87.5593 37.2391C89.0406 36.8376 90.6913 35.2506 91.4575 34.4375C91.2111 35.3917 91.2785 37.0986 92.6256 37.269C93.5491 37.4405 94.2403 36.9368 95.0401 36.5048C97.9093 34.9383 101.344 29.7179 102.235 28.2088H101.066C99.801 30.13 98.1881 32.648 96.1595 33.8433ZM70.4069 33.4942C70.2248 33.2225 70.1647 32.9269 70.1583 32.6061C70.1232 30.6369 72.2353 27.1117 73.7271 25.1908C73.7304 25.1908 73.7304 25.1908 73.7304 25.1908C74.3553 26.563 75.7701 27.4448 76.6244 27.816C75.5634 30.1859 71.925 35.2611 70.4069 33.4942ZM77.2231 26.7573C77.1218 26.8275 75.3378 26.2255 74.9931 24.5683C74.7003 23.142 75.6799 22.0274 76.6276 21.4655C77.0348 21.1441 77.6472 21.0337 78.0964 21.1938C78.5135 21.4757 78.6262 21.9777 78.6262 22.5189C78.6262 22.8511 78.583 23.1923 78.5438 23.5032C78.5438 23.5032 78.5366 23.5638 78.5354 23.5734C78.238 24.6877 77.7832 25.7824 77.2231 26.7573ZM91.5339 32.8619L91.1956 33.1625C90.7143 33.5948 90.219 34.0561 89.6209 33.8255C89.4557 33.7649 89.3393 33.5442 89.3112 33.373C89.2841 32.1381 89.839 30.9937 90.3766 29.8788L90.5144 29.5879C92.0617 26.997 93.86 23.9451 96.5013 21.8264C96.9461 21.5044 97.4295 21.2337 97.9391 21.4447C98.0564 21.5547 98.193 21.7456 98.193 21.9367C98.193 21.9967 98.1393 22.1574 98.1084 22.2077C97.3714 23.4031 96.6685 24.6578 95.9855 25.8628C94.6507 28.243 93.2657 30.7022 91.5339 32.8619Z" fill="#383E47"/>
</g>
</svg>
