<svg width="151" height="37" viewBox="0 0 151 37" fill="none" xmlns="http://www.w3.org/2000/svg">
<mask id="mask0_1_23424" style="mask-type:luminance" maskUnits="userSpaceOnUse" x="0" y="3" width="150" height="34">
<path d="M150 3H0V37H150V3Z" fill="white"/>
</mask>
<g mask="url(#mask0_1_23424)">
<path d="M26.1443 20.54H16.6429C16.5294 20.54 16.4375 20.6323 16.4375 20.7464V23.429C16.4375 23.5429 16.5294 23.6354 16.6429 23.6354H25.293C25.7363 22.6775 26.0302 21.6355 26.1443 20.54Z" fill="#383E47"/>
<path d="M24.0051 25.699H16.6429C16.5294 25.699 16.4375 25.7913 16.4375 25.9052V28.7943C16.4375 29.0792 16.6678 29.3115 16.951 29.2968C19.7947 29.1487 22.3163 27.7784 24.0051 25.699Z" fill="#383E47"/>
<path d="M26.1443 18.4772H16.6429C16.5294 18.4772 16.4375 18.3848 16.4375 18.2708V15.5882C16.4375 15.4743 16.5294 15.3818 16.6429 15.3818H25.293C25.7363 16.3397 26.0302 17.3817 26.1443 18.4772Z" fill="#383E47"/>
<path d="M24.0051 13.3173C22.3163 11.2378 19.7947 9.86749 16.951 9.71942C16.6678 9.70467 16.4375 9.93705 16.4375 10.222V13.1109C16.4375 13.2249 16.5294 13.3173 16.6429 13.3173H24.0051Z" fill="#383E47"/>
<path fill-rule="evenodd" clip-rule="evenodd" d="M16.4383 32.9217C23.8147 32.9217 29.7945 26.9164 29.7945 19.5085C29.7945 12.1006 23.8147 6.09535 16.4383 6.09535C9.06196 6.09535 3.08219 12.1006 3.08219 19.5085C3.08219 26.9164 9.06196 32.9217 16.4383 32.9217ZM16.4383 36.017C25.517 36.017 32.8767 28.6259 32.8767 19.5085C32.8767 10.3911 25.517 3 16.4383 3C7.35971 3 0 10.3911 0 19.5085C0 28.6259 7.35971 36.017 16.4383 36.017Z" fill="#383E47"/>
<path d="M52.0692 29.4835C50.7109 29.4835 49.4535 29.2347 48.2971 28.737C47.159 28.2392 46.1586 27.5479 45.2958 26.6631C44.4515 25.7598 43.7907 24.709 43.3134 23.5108C42.8545 22.2941 42.625 20.9668 42.625 19.5289C42.625 18.0911 42.8545 16.773 43.3134 15.5747C43.7907 14.3581 44.4515 13.3073 45.2958 12.4224C46.1586 11.5191 47.159 10.8186 48.2971 10.3209C49.4535 9.82309 50.7109 9.57422 52.0692 9.57422C53.4277 9.57422 54.6759 9.82309 55.8139 10.3209C56.9703 10.8186 57.9708 11.5191 58.8151 12.4224C59.6779 13.3257 60.3388 14.3857 60.7976 15.6024C61.2749 16.8006 61.5135 18.1094 61.5135 19.5289C61.5135 20.9484 61.2749 22.2665 60.7976 23.4831C60.3388 24.6814 59.6779 25.7321 58.8151 26.6354C57.9708 27.5387 56.9703 28.2392 55.8139 28.737C54.6759 29.2347 53.4277 29.4835 52.0692 29.4835ZM52.0692 26.5801C53.0054 26.5801 53.859 26.405 54.6299 26.0547C55.4193 25.7045 56.0985 25.2159 56.6675 24.5892C57.2365 23.944 57.6771 23.1973 57.9891 22.3494C58.3195 21.4829 58.4847 20.5428 58.4847 19.5289C58.4847 18.515 58.3195 17.584 57.9891 16.7361C57.6771 15.8696 57.2365 15.1231 56.6675 14.4963C56.0985 13.8511 55.4193 13.3533 54.6299 13.0031C53.859 12.6528 53.0054 12.4777 52.0692 12.4777C51.1331 12.4777 50.2704 12.6528 49.481 13.0031C48.7101 13.3533 48.031 13.8419 47.4435 14.4686C46.8745 15.0955 46.434 15.842 46.1218 16.7084C45.8098 17.5564 45.6538 18.4966 45.6538 19.5289C45.6538 20.5428 45.8098 21.4829 46.1218 22.3494C46.434 23.2158 46.8745 23.9624 47.4435 24.5892C48.031 25.2159 48.7101 25.7045 49.481 26.0547C50.2704 26.405 51.1331 26.5801 52.0692 26.5801Z" fill="#383E47"/>
<path d="M63.9062 29.207V14.6898H66.7424V17.6763L66.2467 18.0081C66.4303 17.3629 66.7883 16.773 67.3206 16.2384C67.8529 15.6853 68.4861 15.2429 69.2204 14.9111C69.9546 14.5608 70.7073 14.3857 71.4783 14.3857C72.5796 14.3857 73.4973 14.6069 74.2316 15.0493C74.9659 15.4734 75.5166 16.1277 75.8836 17.0127C76.2507 17.8975 76.4344 19.0128 76.4344 20.3585V29.207H73.5983V20.5521C73.5983 19.7225 73.4882 19.0404 73.2679 18.5059C73.0476 17.9528 72.7081 17.5564 72.2491 17.3168C71.7902 17.0587 71.2212 16.9482 70.542 16.9849C69.9913 16.9849 69.4867 17.0771 69.0277 17.2615C68.5688 17.4275 68.165 17.6671 67.8162 17.9804C67.4858 18.2938 67.2196 18.6625 67.0177 19.0865C66.8341 19.4921 66.7424 19.9345 66.7424 20.4138V29.207H65.338C65.0994 29.207 64.8609 29.207 64.6222 29.207C64.3836 29.207 64.145 29.207 63.9062 29.207Z" fill="#383E47"/>
<path d="M86.0938 29.2068V9.85059H93.638C95.0148 9.85059 96.2538 10.081 97.3552 10.5419C98.4749 11.0027 99.4294 11.6664 100.219 12.5328C101.008 13.3992 101.614 14.4223 102.036 15.6021C102.458 16.7819 102.669 18.0908 102.669 19.5287C102.669 20.9666 102.458 22.2847 102.036 23.4829C101.614 24.6627 101.008 25.6858 100.219 26.5522C99.4478 27.4002 98.5026 28.0547 97.3828 28.5155C96.263 28.9764 95.0148 29.2068 93.638 29.2068H86.0938ZM89.0675 26.6351L88.9848 26.331H93.5005C94.4733 26.331 95.336 26.1743 96.0886 25.861C96.8595 25.5476 97.502 25.1051 98.016 24.5336C98.5483 23.9438 98.9521 23.2248 99.2275 22.3768C99.5028 21.5289 99.6405 20.5794 99.6405 19.5287C99.6405 18.4779 99.5028 17.5378 99.2275 16.7082C98.9521 15.8602 98.5483 15.1413 98.016 14.5513C97.4837 13.9615 96.8412 13.5098 96.0886 13.1964C95.336 12.883 94.4733 12.7264 93.5005 12.7264H88.9022L89.0675 12.4775V26.6351Z" fill="#383E47"/>
<path d="M112.424 29.4839C110.937 29.4839 109.615 29.1705 108.459 28.5438C107.321 27.8986 106.421 27.0229 105.761 25.9169C105.118 24.8108 104.797 23.5388 104.797 22.1009C104.797 20.9579 104.981 19.9164 105.348 18.9763C105.714 18.0361 106.22 17.225 106.862 16.5429C107.523 15.8424 108.303 15.3078 109.202 14.9391C110.12 14.5519 111.111 14.3584 112.176 14.3584C113.113 14.3584 113.984 14.5428 114.791 14.9114C115.6 15.2617 116.297 15.7502 116.884 16.377C117.49 17.0037 117.949 17.7504 118.261 18.6168C118.592 19.4647 118.748 20.3957 118.729 21.4096L118.702 22.6263H106.89L106.256 20.3588H116.251L115.838 20.829V20.1652C115.783 19.5569 115.581 19.0131 115.232 18.5338C114.884 18.0546 114.443 17.6766 113.911 17.4001C113.379 17.1236 112.8 16.9853 112.176 16.9853C111.185 16.9853 110.35 17.1789 109.671 17.566C108.992 17.9347 108.477 18.4877 108.129 19.2251C107.779 19.944 107.606 20.8381 107.606 21.9074C107.606 22.9212 107.816 23.8061 108.239 24.5619C108.661 25.2993 109.258 25.8707 110.028 26.2763C110.799 26.6819 111.69 26.8847 112.7 26.8847C113.415 26.8847 114.076 26.7648 114.681 26.5252C115.306 26.2855 115.976 25.8523 116.692 25.2256L118.123 27.2441C117.682 27.6865 117.141 28.0737 116.499 28.4055C115.875 28.7374 115.204 29.0046 114.489 29.2074C113.792 29.3918 113.103 29.4839 112.424 29.4839Z" fill="#383E47"/>
<path d="M127.841 29.4835C126.501 29.4835 125.299 29.1518 124.234 28.4881C123.187 27.8244 122.352 26.9212 121.728 25.7783C121.122 24.6353 120.82 23.3541 120.82 21.9346C120.82 20.5152 121.122 19.234 121.728 18.0911C122.352 16.9482 123.187 16.0448 124.234 15.3812C125.299 14.7175 126.501 14.3857 127.841 14.3857C129.126 14.3857 130.292 14.6531 131.338 15.1876C132.402 15.7038 133.211 16.4135 133.761 17.3168L132.191 19.2524C131.898 18.8285 131.522 18.4413 131.062 18.0911C130.604 17.7408 130.117 17.4642 129.603 17.2615C129.09 17.0587 128.594 16.9573 128.117 16.9573C127.235 16.9573 126.446 17.1785 125.749 17.6209C125.07 18.0449 124.528 18.6349 124.124 19.3907C123.721 20.1465 123.518 20.9945 123.518 21.9346C123.518 22.8748 123.729 23.7228 124.151 24.4786C124.573 25.216 125.133 25.8059 125.831 26.2483C126.528 26.6907 127.3 26.912 128.144 26.912C128.64 26.912 129.116 26.829 129.576 26.6631C130.053 26.4972 130.512 26.2483 130.952 25.9165C131.393 25.5847 131.806 25.1791 132.191 24.6998L133.761 26.6355C133.174 27.465 132.329 28.147 131.228 28.6817C130.145 29.2163 129.016 29.4835 127.841 29.4835Z" fill="#383E47"/>
<path d="M138.408 24.6723L138.271 21.5753L145.182 14.69H149.009L138.408 24.6723ZM135.82 29.2071V9.80957H138.657V29.2071H135.82ZM145.567 29.2071L140.116 22.8196L142.125 20.9669L149.202 29.2071H145.567Z" fill="#383E47"/>
</g>
</svg>
