<svg width="82" height="40" viewBox="0 0 82 40" fill="none" xmlns="http://www.w3.org/2000/svg">
<g clip-path="url(#clip0_1_23375)">
<mask id="mask0_1_23375" style="mask-type:luminance" maskUnits="userSpaceOnUse" x="1" y="0" width="81" height="40">
<path d="M81.1797 0H1.17969V40H81.1797V0Z" fill="white"/>
</mask>
<g mask="url(#mask0_1_23375)">
<path d="M39.6944 29.2835L39.6748 29.325C38.538 31.5199 36.7347 32.5869 34.159 32.5869C30.8229 32.5869 28.401 30.2206 28.401 26.9652C28.401 23.8102 30.7498 21.576 34.3826 21.2694L39.4937 20.8342L39.5613 20.8287V19.561C39.5613 17.7075 38.5336 16.7268 36.5885 16.7268C34.6488 16.7268 33.4324 17.7272 33.3964 19.3407H29.0195C29.193 15.6489 32.1538 13.359 36.7685 13.359C41.2806 13.359 43.8684 15.6446 43.8684 19.633V28.7817H46.9852V32.1516H39.9966L39.9606 29.3588V29.2835H39.6944ZM39.5613 24.9339V24.1255L35.4114 24.4844C35.3154 24.4964 33.0767 24.7561 32.552 25.739C32.3153 26.1809 32.2727 26.7383 32.4353 27.2696C32.5673 27.706 32.8989 28.3213 33.7171 28.7533C34.1055 28.9955 34.6193 29.1439 35.2423 29.1962L35.3088 29.205C35.3415 29.2104 35.3765 29.2148 35.4125 29.218L35.4605 29.2126C35.5575 29.2159 35.6536 29.218 35.755 29.218C37.9969 29.218 39.5613 27.4562 39.5613 24.9339ZM12.1459 7.53446C12.2124 7.5421 12.2779 7.55192 12.3325 7.56283C14.2274 7.81265 15.9664 8.74323 17.2232 10.1789C19.9603 13.3078 19.8065 18.013 16.8708 20.9574C15.3958 22.4346 13.3918 23.2659 11.3015 23.2659C11.2262 23.2659 11.1542 23.2615 11.0811 23.256C11.0397 23.2539 10.9982 23.2506 10.9568 23.2495H5.7671V32.1549H1.17969V7.48755H11.3201L11.3386 7.48973C11.6004 7.48973 11.8633 7.50283 12.1263 7.5301L12.1459 7.53446ZM13.5085 11.535H5.7671V19.2894H13.5085V11.5317V11.535Z" fill="#383E47"/>
<path d="M21.3516 32.1808H25.7612V7.41309H21.3516V32.1808ZM49.1816 11.8729H53.5606V7.48727H49.1816V11.8729ZM72.519 32.1502V20.1062C72.519 15.6912 70.4528 13.3588 66.5418 13.3588C64.0937 13.3588 62.3253 14.3679 61.1351 16.4418L60.9932 16.6872V13.793H56.6164V32.1502H60.9954V21.5201C60.9954 18.7196 62.5904 16.9087 65.057 16.9087C67.1309 16.9087 68.14 18.0596 68.14 20.4313V32.1513L72.519 32.1502ZM75.5017 32.1502H81.179V26.4653H75.5017V32.1502ZM53.5497 32.1808H49.1401V13.8399H53.5497V32.1808Z" fill="#383E47"/>
</g>
</g>
<defs>
<clipPath id="clip0_1_23375">
<rect width="81" height="40" fill="white" transform="translate(0.5625)"/>
</clipPath>
</defs>
</svg>
