<svg width="140" height="40" viewBox="0 0 140 40" fill="none" xmlns="http://www.w3.org/2000/svg">
<mask id="mask0_1_23341" style="mask-type:luminance" maskUnits="userSpaceOnUse" x="0" y="4" width="139" height="35">
<path d="M138.86 4H0.929688V38.1877H138.86V4Z" fill="white"/>
</mask>
<g mask="url(#mask0_1_23341)">
<path d="M99.2526 15.4484C97.225 15.4484 95.7779 16.141 95.0676 17.4525L94.6859 18.1628V15.7903H91.3865V30.211H94.8569V21.6316C94.8569 19.5819 95.9709 18.4059 97.9117 18.4059C99.7625 18.4059 100.824 19.5509 100.824 21.5462V30.211H104.296V20.9273C104.296 17.4938 102.411 15.4484 99.2526 15.4484ZM82.4226 15.4484C78.3274 15.4484 75.7913 18.0036 75.7913 22.1165V24.1412C75.7913 28.0964 78.3569 30.5529 82.4874 30.5529C85.2504 30.5529 87.1867 29.5405 88.4054 27.4583L86.2539 26.2205C85.3536 27.4215 83.9153 28.1656 82.4889 28.1656C80.3978 28.1656 79.1497 26.8747 79.1497 24.7115V24.1383H88.8357V21.7466C88.8357 17.9152 86.3203 15.4484 82.4255 15.4484H82.4226ZM85.6778 21.807H79.1379V21.4607C79.1379 19.0867 80.3035 17.7767 82.4196 17.7767C84.4576 17.7767 85.6748 19.0676 85.6748 21.2308L85.6778 21.807ZM138.76 13.4163V10.6577H126.756V13.4163H130.965V27.4465H126.756V30.2051H138.76V27.4465H134.55V13.4163H138.76ZM47.7412 10.2598C42.3802 10.2598 39.0469 13.6005 39.0469 18.9806V21.8895C39.0469 27.2682 42.3788 30.6103 47.7412 30.6103C53.1037 30.6103 56.4355 27.2682 56.4355 21.8895V18.9806C56.434 13.5946 53.0978 10.2598 47.7412 10.2598ZM52.8487 22.0885C52.8487 25.6605 50.9876 27.7088 47.7412 27.7088C44.4949 27.7088 42.6352 25.6605 42.6352 22.0885V18.7802C42.6352 15.2082 44.4978 13.1599 47.7427 13.1599C50.9876 13.1599 52.8502 15.2082 52.8502 18.7802L52.8487 22.0885ZM67.3358 15.4484C65.5144 15.4484 63.9376 16.2029 63.1154 17.4658L62.7425 18.0405V15.7903H59.4417V35.1726H62.9135V28.1524L63.2848 28.7035C64.0658 29.8617 65.591 30.5529 67.3653 30.5529C70.3581 30.5529 73.3776 28.5974 73.3776 24.2267V21.7746C73.3776 18.6255 71.5164 15.4484 67.3358 15.4484ZM69.9058 24.0572C69.9058 26.3811 68.55 27.8252 66.3691 27.8252C64.3355 27.8252 62.9164 26.2986 62.9164 24.1147V21.9455C62.9164 19.7351 64.3473 18.179 66.3986 18.179C68.5633 18.179 69.9087 19.6216 69.9087 21.9455L69.9058 24.0572ZM113.889 10.6592L106.885 30.211H110.411L111.752 26.0201H119.804L119.817 26.0613L121.143 30.211H124.668L117.653 10.6577L113.889 10.6592ZM112.613 23.2629L115.772 13.378L118.899 23.2629H112.613Z" fill="#383E47"/>
<path d="M32.2578 18.0172C32.6378 16.8765 32.7696 15.6679 32.6446 14.4721C32.5196 13.2764 32.1405 12.1212 31.5328 11.0838C30.6306 9.51608 29.2543 8.27493 27.6019 7.53904C25.9495 6.80315 24.1063 6.61047 22.3374 6.98873C21.5397 6.089 20.5589 5.37008 19.4607 4.8801C18.3626 4.39012 17.1724 4.14038 15.97 4.14761C14.1608 4.14349 12.3971 4.71415 10.9333 5.77727C9.46948 6.84038 8.38117 8.341 7.82538 10.0626C6.64756 10.3042 5.53491 10.7946 4.56184 11.5008C3.58878 12.207 2.77772 13.1129 2.18293 14.1578C1.27603 15.723 0.889132 17.5356 1.07794 19.3347C1.26675 21.1338 2.02152 22.8266 3.23361 24.1695C2.85511 25.3091 2.724 26.5164 2.84902 27.7107C2.97404 28.905 3.35232 30.0589 3.95863 31.0954C4.85992 32.6663 6.23687 33.9102 7.89087 34.6478C9.54487 35.3854 11.3904 35.5786 13.1613 35.1994C13.9584 36.0981 14.938 36.8163 16.0348 37.3063C17.1315 37.7962 18.3202 38.0465 19.5214 38.0406C21.3305 38.0447 23.0942 37.474 24.5581 36.4109C26.0219 35.3478 27.1102 33.8472 27.666 32.1255C28.8436 31.8838 29.956 31.3934 30.9288 30.6872C31.9016 29.981 32.7124 29.0751 33.307 28.0303C34.2162 26.4656 34.6046 24.6524 34.416 22.8526C34.2274 21.0527 33.4716 19.3594 32.2578 18.0172ZM19.5214 35.8301C18.0356 35.8314 16.5968 35.3098 15.4572 34.3565C15.5073 34.3285 15.6045 34.2799 15.6605 34.2431L22.4096 30.3468C22.579 30.2507 22.7196 30.1111 22.817 29.9424C22.9144 29.7738 22.965 29.5823 22.9637 29.3875V19.871L25.8152 21.517C25.8306 21.5243 25.8438 21.5355 25.8536 21.5494C25.8635 21.5633 25.8695 21.5796 25.8712 21.5966V29.473C25.8712 31.1577 25.2024 32.7736 24.0118 33.9656C22.8212 35.1576 21.2061 35.8282 19.5214 35.8301ZM5.87727 30.0035C5.13326 28.7177 4.86465 27.2114 5.11836 25.7477C5.16846 25.7787 5.25688 25.8317 5.31877 25.8671L12.0693 29.7648C12.2374 29.8632 12.4287 29.9151 12.6234 29.9151C12.8182 29.9151 13.0094 29.8632 13.1775 29.7648L21.4135 25.0021V28.2941C21.415 28.311 21.4122 28.3281 21.4052 28.3435C21.3982 28.359 21.3874 28.3725 21.3737 28.3825L14.5509 32.32C13.0921 33.16 11.3596 33.387 9.73362 32.9514C8.10759 32.5157 6.72074 31.4529 5.87727 29.9961V30.0035ZM4.10894 15.2674C4.84946 13.9797 6.0196 12.9937 7.41424 12.4823V20.5046C7.41325 20.6993 7.46404 20.8907 7.5614 21.0593C7.65876 21.2279 7.7992 21.3675 7.96832 21.4639L16.2058 26.2207L13.344 27.8727C13.3301 27.8821 13.314 27.8878 13.2972 27.8893C13.2805 27.8909 13.2637 27.8882 13.2482 27.8815L6.42692 23.9425C4.96941 23.0993 3.90607 21.7122 3.47036 20.0857C3.03466 18.4592 3.2622 16.7263 4.10304 15.2674H4.10894ZM27.5393 20.7198L19.3018 15.963L22.1503 14.3155C22.1643 14.3062 22.1804 14.3005 22.1971 14.299C22.2138 14.2975 22.2306 14.3001 22.2461 14.3066L29.0674 18.2456C30.1122 18.8493 30.9634 19.7381 31.5214 20.808C32.0793 21.8779 32.321 23.0846 32.218 24.2868C32.115 25.4891 31.6717 26.6371 30.9399 27.5966C30.2082 28.556 29.2182 29.2871 28.086 29.7044V21.6835C28.0882 21.4884 28.0383 21.2961 27.9414 21.1267C27.8445 20.9573 27.7042 20.8168 27.5349 20.7198H27.5393ZM30.3789 16.4463C30.3288 16.4154 30.2404 16.3623 30.1785 16.3269L23.4279 12.4292C23.2598 12.3308 23.0686 12.2789 22.8738 12.2789C22.6791 12.2789 22.4878 12.3308 22.3198 12.4292L14.0823 17.1846V13.894C14.0817 13.8771 14.0851 13.8602 14.0923 13.8449C14.0995 13.8295 14.1102 13.816 14.1235 13.8056L20.9449 9.86816C21.9901 9.26567 23.1852 8.97333 24.3905 9.02533C25.5958 9.07734 26.7613 9.47154 27.7507 10.1618C28.7401 10.852 29.5125 11.8098 29.9774 12.923C30.4423 14.0362 30.5806 15.2589 30.376 16.4478L30.3789 16.4463ZM12.5276 22.3172L9.67476 20.6711C9.6601 20.663 9.64754 20.6516 9.63807 20.6378C9.62861 20.624 9.6225 20.6082 9.62023 20.5916V12.7151C9.61932 11.5079 9.96254 10.3255 10.6097 9.30643C11.2568 8.28734 12.181 7.47385 13.274 6.9613C14.367 6.44875 15.5835 6.2584 16.7808 6.41254C17.9781 6.56669 19.1067 7.05895 20.0342 7.83163C19.9841 7.85963 19.8942 7.90826 19.8308 7.9451L13.0817 11.8413C12.9126 11.9377 12.7722 12.0773 12.6748 12.2459C12.5774 12.4145 12.5266 12.6059 12.5276 12.8006V22.3172ZM14.0764 18.9765L17.7457 16.8574L21.4135 18.9765V23.2116L17.7442 25.3307L14.0749 23.2116L14.0764 18.9765Z" fill="#383E47"/>
</g>
</svg>
