<svg width="12" height="12" viewBox="0 0 12 12" fill="none" xmlns="http://www.w3.org/2000/svg">
<path fill-rule="evenodd" clip-rule="evenodd" d="M2.69167 11.2005V4.23446H0.349649V11.2015L2.69167 11.2005ZM1.52066 3.28346C2.33685 3.28346 2.84546 2.74846 2.84546 2.07946C2.83039 1.39646 2.33685 0.876465 1.53574 0.876465C0.734626 0.876465 0.210938 1.39646 0.210938 2.07946C0.210938 2.74846 0.719549 3.28346 1.50559 3.28346H1.52066ZM3.98733 11.2005H6.32935V7.31046C6.32935 7.10246 6.34544 6.89447 6.40675 6.74547C6.57662 6.32947 6.9616 5.89847 7.60893 5.89847C8.45628 5.89847 8.79501 6.53847 8.79501 7.47447V11.2005H11.137V7.20546C11.137 5.06546 9.9811 4.07046 8.4412 4.07046C7.1767 4.07046 6.62186 4.76846 6.31428 5.24346H6.32935V4.23346H3.98733C4.01748 4.88746 3.98733 11.2005 3.98733 11.2005Z" fill="#1C1D1F"/>
</svg>
