<svg width="77" height="77" viewBox="0 0 77 77" fill="none" xmlns="http://www.w3.org/2000/svg">
<g clip-path="url(#clip0_1_23215)">
<g clip-path="url(#clip1_1_23215)">
<path d="M0.703125 2.67603H74.7746V76.7475H0.703125V2.67603Z" fill="white"/>
<path d="M16.9492 57.6329C16.0032 57.6656 15.1069 58.0643 14.4493 58.7451C13.7916 59.4259 13.424 60.3354 13.424 61.282C13.424 62.2285 13.7916 63.1381 14.4493 63.8188C15.1069 64.4996 16.0032 64.8984 16.9492 64.9311C17.8952 64.8984 18.7915 64.4996 19.4491 63.8188C20.1068 63.1381 20.4744 62.2285 20.4744 61.282C20.4744 60.3354 20.1068 59.4259 19.4491 58.7451C18.7915 58.0643 17.8952 57.6656 16.9492 57.6329ZM57.1961 13.5342C56.4736 13.5334 55.7671 13.7467 55.1659 14.1474C54.5646 14.548 54.0957 15.1179 53.8183 15.785C53.5409 16.4522 53.4676 17.1866 53.6075 17.8954C53.7475 18.6042 54.0944 19.2556 54.6045 19.7672C55.1147 20.2789 55.765 20.6278 56.4734 20.7698C57.1818 20.9119 57.9164 20.8407 58.5844 20.5653C59.2523 20.2899 59.8236 19.8227 60.226 19.2226C60.6285 18.6226 60.8439 17.9167 60.8452 17.1942V17.1811C60.8452 15.1681 59.2091 13.5342 57.1961 13.5342ZM30.7635 28.2766V32.7558C30.7635 33.4224 31.3038 33.9758 31.9835 33.9758H68.1434C68.467 33.9758 68.7773 33.8472 69.0061 33.6184C69.2349 33.3896 69.3634 33.0793 69.3634 32.7558V28.2766C69.3612 27.9537 69.2319 27.6448 69.0036 27.4165C68.7753 27.1882 68.4663 27.0589 68.1434 27.0566H31.9835C31.6608 27.0595 31.3522 27.1889 31.124 27.4171C30.8958 27.6453 30.7664 27.9539 30.7635 28.2766ZM44.6781 48.9229V44.4569C44.6781 44.1333 44.5495 43.823 44.3207 43.5942C44.0919 43.3654 43.7816 43.2369 43.4581 43.2369H7.29812C6.97456 43.2369 6.66425 43.3654 6.43545 43.5942C6.20666 43.823 6.07813 44.1333 6.07812 44.4569V48.9229C6.07812 49.5896 6.61841 50.1429 7.29812 50.1429H43.4581C44.1378 50.1429 44.6781 49.6026 44.6781 48.9229ZM69.0868 42.9101C68.9893 42.7847 68.8678 42.6801 68.7294 42.6023C68.591 42.5245 68.4384 42.4751 68.2807 42.4569L63.8408 42.0038C63.5258 41.9686 63.2097 42.0585 62.9603 42.254C62.711 42.4496 62.5483 42.7352 62.5075 43.0495C60.6448 56.9139 47.874 66.6521 34.0096 64.7764C32.0837 64.5128 30.1971 64.0357 28.3845 63.356C28.2392 63.2977 28.0839 63.2687 27.9273 63.2707C27.7708 63.2727 27.6162 63.3056 27.4725 63.3675C27.3287 63.4295 27.1986 63.5193 27.0897 63.6317C26.9807 63.7441 26.8951 63.877 26.8377 64.0226L25.1384 68.1357C25.0761 68.2869 25.0446 68.4489 25.0458 68.6124C25.047 68.7759 25.0809 68.9375 25.1454 69.0877C25.21 69.2379 25.3039 69.3736 25.4217 69.487C25.5394 69.6004 25.6787 69.6891 25.8312 69.7479C42.4254 76.1507 61.0849 67.8852 67.4899 51.2889C68.4183 48.8871 69.0518 46.3816 69.3765 43.8272C69.3964 43.6626 69.3808 43.4955 69.3309 43.3373C69.2809 43.1791 69.1977 43.0335 69.0868 42.9101ZM6.34391 32.6425C6.25681 32.5058 6.1994 32.3524 6.17538 32.1922C6.15136 32.0319 6.16127 31.8684 6.20448 31.7122C7.97707 24.7845 12.0064 18.6445 17.6563 14.2612C23.3063 9.878 30.2551 7.50124 37.406 7.50611C41.005 7.50611 44.5909 8.09868 47.9873 9.29254C48.6169 9.49515 48.9677 10.1749 48.7672 10.8023C48.7542 10.8284 48.7433 10.8676 48.7302 10.8894L47.1311 15.0679C47.0248 15.3649 46.8048 15.6075 46.5197 15.7423C46.2345 15.8771 45.9075 15.8931 45.6105 15.7869C42.965 14.8836 40.1883 14.4242 37.3929 14.4274C31.6081 14.4005 25.9926 16.3791 21.5024 20.0264C17.2928 23.4366 14.2787 28.0989 12.8971 33.3374C12.8296 33.5965 12.6783 33.826 12.4666 33.99C12.2549 34.154 11.9949 34.2432 11.7272 34.2437C11.6354 34.2561 11.5423 34.2561 11.4505 34.2437L7.0977 33.2481C6.77728 33.152 6.50642 32.9358 6.34173 32.6446L6.34391 32.6425Z" fill="#25C365"/>
</g>
</g>
<defs>
<clipPath id="clip0_1_23215">
<rect width="76.25" height="76.25" fill="white" transform="translate(0.25 0.630127)"/>
</clipPath>
<clipPath id="clip1_1_23215">
<rect width="76.25" height="76.25" fill="white" transform="translate(0.25 0.630127)"/>
</clipPath>
</defs>
</svg>
