<svg width="100" height="29" viewBox="0 0 100 29" fill="none" xmlns="http://www.w3.org/2000/svg">
<g clip-path="url(#clip0_1_22344)">
<path d="M81.7752 3.2085H77.6641V7.31965H81.7752V3.2085Z" fill="#FAFAFB"/>
<path fill-rule="evenodd" clip-rule="evenodd" d="M65.7656 13.7644H62.1553V20.445C62.1553 21.0019 62.2937 21.4093 62.5721 21.6653C62.8506 21.9232 63.2579 22.0727 63.7924 22.1157C64.3268 22.1362 64.9921 22.1269 65.7844 22.0839V25.8419C62.9795 26.1633 60.9781 25.9054 59.7784 25.0719C58.6011 24.2161 58.0125 22.6744 58.0125 20.4469V13.7663H55.2188V9.78223H58.0125V6.53816L62.1553 5.28613V9.7841H68.5593V6.54003L72.7024 5.288V9.78597H76.3314V13.77H72.7024V20.4506C72.7024 21.0075 72.8405 21.4149 73.119 21.6709C73.3974 21.9288 73.8048 22.0783 74.3392 22.1213C74.8737 22.1418 75.5391 22.1325 76.3295 22.0895V25.8475C73.5246 26.1689 71.5231 25.911 70.3234 25.0776C69.1461 24.2217 68.5575 22.68 68.5575 20.4525V13.7719H65.7639L65.7656 13.7644Z" fill="#FAFAFB"/>
<path d="M81.7913 9.77881H77.6484V25.8403H81.7913V9.77881Z" fill="#FAFAFB"/>
<path fill-rule="evenodd" clip-rule="evenodd" d="M91.5542 9.36182C86.8899 9.36182 83.1076 13.1441 83.1076 17.8102C83.1076 22.4764 86.8899 26.2586 91.5542 26.2586C96.2185 26.2586 100.001 22.4764 100.001 17.8102C100.001 13.1441 96.2203 9.36182 91.5542 9.36182ZM91.5392 22.2764C89.0651 22.2764 87.0581 20.2694 87.0581 17.7953C87.0581 15.3211 89.0651 13.3141 91.5392 13.3141C94.0134 13.3141 96.0185 15.3192 96.0185 17.7953C96.0185 20.2713 94.0134 22.2764 91.5392 22.2764ZM49.7918 9.74677V10.6381C48.4968 9.83086 46.9682 9.36182 45.3293 9.36182C40.665 9.36182 36.8828 13.1441 36.8828 17.8102C36.8828 22.4764 40.665 26.2586 45.3293 26.2586C46.9682 26.2586 48.4968 25.7915 49.7918 24.9823V25.8737H53.9029V9.74677H49.7918ZM45.3144 22.2764C42.8402 22.2764 40.8332 20.2694 40.8332 17.7953C40.8332 15.3211 42.8402 13.3141 45.3144 13.3141C47.7885 13.3141 49.7525 15.28 49.7918 17.7205V17.8681C49.7525 20.3087 47.7642 22.2745 45.3144 22.2745V22.2764Z" fill="#FAFAFB"/>
<path d="M29.7538 19.4662L27.2422 15.4467C27.2422 15.4467 27.2329 15.4298 27.2273 15.4224L27.0292 15.1066C26.6555 14.5067 26.0089 14.1479 25.3025 14.146L21.2568 14.133L20.9746 14.5852L16.1403 22.3216L15.873 22.7496L17.8987 25.9862C18.2725 26.5879 18.919 26.9467 19.631 26.9467H25.3007C25.9996 26.9467 26.6611 26.5785 27.0311 25.988L27.231 25.6685C27.231 25.6685 27.2385 25.6591 27.2404 25.6554L29.7556 21.6302C30.1686 20.9724 30.1686 20.1222 29.7556 19.4662H29.7538ZM28.9876 21.15L26.4723 25.1751C26.4611 25.1938 26.448 25.2088 26.4368 25.2237C26.349 25.3228 26.235 25.3358 26.1846 25.3358C26.1266 25.3358 25.9846 25.319 25.893 25.1733L23.3778 21.1481C23.3497 21.1032 23.3254 21.0565 23.303 21.0061C23.2806 20.9575 23.2638 20.9089 23.2488 20.8584C23.1928 20.6566 23.1928 20.4398 23.2488 20.238C23.2769 20.139 23.3198 20.0399 23.3759 19.9502L25.8874 15.9288C25.8874 15.9288 25.8912 15.9232 25.893 15.9194C25.9528 15.8298 26.0276 15.7886 26.093 15.7756C26.1192 15.7681 26.1416 15.7662 26.1603 15.7625H26.1883C26.2462 15.7625 26.3901 15.7812 26.4798 15.9269L28.9913 19.9465C29.2212 20.3128 29.2212 20.7837 28.9913 21.15H28.9876ZM22.3217 9.74019C22.7328 9.08054 22.7328 8.23215 22.3217 7.57623L19.8101 3.55665L19.6008 3.21842C19.2252 2.61856 18.5787 2.25977 17.8685 2.25977H12.1989C11.4907 2.25977 10.8441 2.61856 10.4666 3.22028L0.313942 19.4687C0.110254 19.7938 0 20.1695 0 20.5507C0 20.9319 0.108385 21.3075 0.312074 21.6308L3.03478 25.9905C3.41038 26.5922 4.05696 26.9491 4.76519 26.9491H10.4348C11.1468 26.9491 11.7934 26.5903 12.1671 25.9886L12.3746 25.6597V25.656C12.3746 25.656 12.3783 25.6504 12.3783 25.6485L14.4021 22.4119L20.4006 12.8124L22.3179 9.74206L22.3217 9.74019ZM21.7293 8.65821C21.7293 8.86564 21.6714 9.07493 21.5536 9.25993L11.6084 25.1776C11.5187 25.3215 11.3748 25.3383 11.3169 25.3383C11.2589 25.3383 11.1169 25.3215 11.0254 25.1776L8.51195 21.1505C8.28396 20.7861 8.28396 20.3171 8.51195 19.949L18.4572 4.03504C18.5469 3.88928 18.6908 3.87246 18.7487 3.87246C18.8066 3.87246 18.9505 3.88928 19.0421 4.03691L21.5536 8.05649C21.6714 8.24149 21.7293 8.45079 21.7293 8.65821Z" fill="#FAFAFB"/>
</g>
<defs>
<clipPath id="clip0_1_22344">
<rect width="100" height="29" fill="white"/>
</clipPath>
</defs>
</svg>
