<svg width="77" height="77" viewBox="0 0 77 77" fill="none" xmlns="http://www.w3.org/2000/svg">
<g clip-path="url(#clip0_1_23191)">
<g clip-path="url(#clip1_1_23191)">
<path d="M1.49219 2.67603H75.5636V76.7475H1.49219V2.67603Z" fill="white"/>
<path d="M21.5507 71.9156H27.9905C28.5787 71.9156 28.9665 71.5256 28.9665 70.9417V70.5496L23.6965 56.3017C23.6051 56.1224 23.4651 55.9724 23.2926 55.8688C23.12 55.7652 22.9218 55.7121 22.7205 55.7157H16.2807C15.6947 55.9118 15.3047 56.3039 15.3047 56.6917V57.0838L20.5747 71.3317C20.7707 71.7217 21.1607 71.9156 21.5507 71.9156ZM48.0944 8.67818L53.3665 22.926C53.5604 23.3182 53.9504 23.5121 54.3403 23.5121H60.7824C61.3662 23.5121 61.7584 23.1199 61.7584 22.5361V22.1439L56.4862 7.89607C56.2196 7.65234 55.8735 7.51376 55.5124 7.5061H49.0704C48.4843 7.5061 48.0944 7.89825 48.0944 8.4821V8.67818ZM33.4544 71.9156H39.8964C40.4846 71.9156 40.8724 71.5256 40.8724 70.9417V70.5496L29.7486 40.298C29.6575 40.1182 29.5176 39.9678 29.3451 39.8637C29.1725 39.7597 28.9741 39.7064 28.7726 39.7097H22.3306C21.7445 39.7097 21.3546 40.1019 21.3546 40.6879V41.0779L32.4805 71.3317C32.6766 71.7217 33.0644 71.9156 33.4544 71.9156ZM46.1424 71.9156H52.5844C53.1704 71.9156 53.5604 71.5256 53.5604 70.9417V70.7457L30.5285 8.09214C30.5285 7.7 30.1364 7.5061 29.7486 7.5061H23.1105C22.7184 7.5061 22.3284 7.89825 22.3284 8.4821V8.87425L45.3603 71.3317C45.5563 71.7217 45.7546 71.9156 46.1424 71.9156ZM47.3144 39.7119H53.7543C54.3425 39.7119 54.7303 39.3198 54.7303 38.7359V38.3438L43.6065 8.09432C43.5151 7.91499 43.3751 7.76497 43.2025 7.66135C43.03 7.55773 42.8318 7.50469 42.6305 7.50828H36.1885C35.6024 7.50828 35.2125 7.90043 35.2125 8.48428V8.87643L46.5323 39.1281C46.7284 39.5202 46.9245 39.7141 47.3144 39.7141V39.7119Z" fill="#244AE5"/>
</g>
</g>
<defs>
<clipPath id="clip0_1_23191">
<rect width="76.25" height="76.25" fill="white" transform="translate(0.5 0.630127)"/>
</clipPath>
<clipPath id="clip1_1_23191">
<rect width="76.25" height="76.25" fill="white" transform="translate(0.5 0.630127)"/>
</clipPath>
</defs>
</svg>
