<svg width="77" height="77" viewBox="0 0 77 77" fill="none" xmlns="http://www.w3.org/2000/svg">
<g clip-path="url(#clip0_1_23220)">
<g clip-path="url(#clip1_1_23220)">
<path d="M1.32031 2.67603H75.3917V76.7475H1.32031V2.67603Z" fill="white"/>
<mask id="mask0_1_23220" style="mask-type:luminance" maskUnits="userSpaceOnUse" x="3" y="7" width="70" height="65">
<path d="M3.73438 7.5061H72.9759V71.9156H3.73438V7.5061Z" fill="white"/>
</mask>
<g mask="url(#mask0_1_23220)">
<path d="M72.9666 41.3263C72.9686 41.0601 72.9018 40.798 72.7728 40.5652C72.6438 40.3324 72.457 40.1368 72.2303 39.9973H72.2215L72.1932 39.9799L48.1984 25.7778C47.6669 25.4199 47.0408 25.2288 46.4 25.2288C45.7593 25.2288 45.1331 25.4199 44.6016 25.7778L20.609 39.9821L20.5807 39.9973C20.3521 40.1398 20.1642 40.3388 20.0351 40.5752C19.906 40.8115 19.8402 41.0772 19.8439 41.3465C19.8476 41.6158 19.9208 41.8796 20.0564 42.1123C20.1919 42.345 20.3853 42.5387 20.6177 42.6748L44.6103 56.8769C45.1418 57.2348 45.768 57.4259 46.4087 57.4259C47.0495 57.4259 47.6757 57.2348 48.2071 56.8769L72.1998 42.6726C72.4352 42.5354 72.6301 42.3384 72.7648 42.1016C72.8994 41.8648 72.9691 41.5987 72.9666 41.3263Z" fill="#0A2767"/>
<path d="M23.4128 31.8386H39.1573V46.2716H23.4128V31.8386ZM69.7532 17.1681V10.567C69.7719 9.77399 69.4749 9.00603 68.9274 8.43202C68.38 7.858 67.6269 7.52495 66.8339 7.5061H25.9748C25.1818 7.52495 24.4288 7.858 23.8813 8.43202C23.3338 9.00603 23.0368 9.77399 23.0555 10.567V17.1681L47.2093 23.6079L69.7532 17.1681Z" fill="#0364B8"/>
<path d="M23.0625 17.1702H39.1665V31.662H23.0625V17.1702Z" fill="#0078D4"/>
<path d="M55.2637 17.1702H39.1641V31.662L55.2637 46.1539H69.7577V31.662L55.2659 17.1702H55.2637Z" fill="#28A8EA"/>
<path d="M39.1641 31.6604H55.2681V46.1523H39.1641V31.6604Z" fill="#0078D4"/>
<path d="M39.1641 46.1536H55.2681V60.6454H39.1641V46.1536Z" fill="#0364B8"/>
<path d="M23.4219 46.2698H39.1664V59.3891H23.4219V46.272V46.2698Z" fill="#14447D"/>
<path d="M55.2656 46.1536H69.7575V60.6454H55.2656V46.1536Z" fill="#0078D4"/>
<path d="M72.2371 42.5829L72.2066 42.5982L48.214 56.0922C47.7251 56.3962 47.1661 56.5688 46.591 56.5933L45.2795 55.8286C45.1705 55.772 45.0616 55.711 44.957 55.6435L20.6442 41.766H20.6311L19.8359 41.3215V68.6386C19.849 70.4599 21.3348 71.9283 23.1583 71.9174H69.7034C69.7318 71.9174 69.7557 71.9043 69.784 71.9043C70.1697 71.8804 70.5487 71.7998 70.9125 71.669C71.0694 71.6037 71.2197 71.5231 71.3657 71.4337C71.8545 71.1485 72.2603 70.7406 72.5431 70.2504C72.8258 69.7601 72.9757 69.2046 72.9778 68.6386V41.3215C72.9735 41.8444 72.6924 42.3259 72.2371 42.5829Z" fill="url(#paint0_linear_1_23220)"/>
<path opacity="0.5" d="M71.6865 41.2155V42.8909L46.5981 60.1626L20.6252 41.7798L20.6247 41.7733L20.6216 41.7676L20.6163 41.7637L20.6099 41.7624L18.2266 40.3289V39.1219L19.2069 39.1067L21.2853 40.2984L21.3332 40.3136L21.5118 40.4269C21.5118 40.4269 45.9227 54.3545 45.9881 54.3872L46.9205 54.934C47.0052 54.8994 47.0909 54.8675 47.1776 54.8382C47.2277 54.8055 71.4142 41.2003 71.4142 41.2003L71.6865 41.2155Z" fill="#0A2767"/>
<path d="M72.2371 42.5829L72.2066 42.6004L48.214 56.0944C47.6759 56.4348 47.0523 56.6156 46.4156 56.6156C45.7789 56.6156 45.1553 56.4348 44.6172 56.0944L20.6224 42.6004L20.5941 42.5829C20.3666 42.4596 20.1762 42.2775 20.0429 42.0557C19.9096 41.8338 19.8381 41.5803 19.8359 41.3215V68.6386C19.8468 70.4599 21.3348 71.9283 23.1561 71.9174H69.6533C70.0868 71.9205 70.5167 71.8382 70.9184 71.6751C71.3201 71.512 71.6856 71.2713 71.9942 70.9668C72.3028 70.6622 72.5483 70.2999 72.7167 69.9004C72.8851 69.5009 72.9731 69.0722 72.9757 68.6386V41.3215C72.9757 41.8444 72.6924 42.3259 72.2371 42.5829Z" fill="#1490DF"/>
<path opacity="0.1" d="M48.557 55.8967L48.1976 56.0993C47.7206 56.4034 47.174 56.5811 46.6094 56.6157L55.7376 67.4105L71.663 71.2469C72.0987 70.9202 72.4472 70.4844 72.6716 69.9877L48.5548 55.8967H48.557Z" fill="black"/>
<path opacity="0.05" d="M50.1822 54.9797L48.1976 56.0952C47.7205 56.3991 47.174 56.5767 46.6094 56.6115L50.8859 68.4041L71.6673 71.2406C72.4864 70.6262 72.9679 69.6611 72.9679 68.6372V68.2843L50.1822 54.9797Z" fill="black"/>
<path d="M23.2018 71.9174H69.649C70.3635 71.9196 71.0607 71.6952 71.638 71.2725L45.2773 55.8308C45.1684 55.7764 45.0594 55.7154 44.957 55.6456L20.642 41.7681H20.6289L19.8359 41.3215V68.545C19.8359 70.4055 21.3392 71.9152 23.2018 71.9174Z" fill="#28A8EA"/>
<path opacity="0.1" d="M42.3798 23.338V57.6875C42.3785 58.2764 42.2016 58.8514 41.8717 59.3392C41.5418 59.827 41.074 60.2054 40.528 60.426C40.1816 60.5741 39.8091 60.6503 39.4322 60.6503H19.8359V21.9981H23.0559V20.386H39.4322C40.2138 20.3889 40.9625 20.7009 41.5148 21.254C42.0671 21.8071 42.3781 22.5563 42.3798 23.338Z" fill="black"/>
<path opacity="0.2" d="M40.7698 24.9504V59.2956C40.7742 59.6855 40.6914 60.0711 40.528 60.4241C40.3091 60.9629 39.935 61.4245 39.4533 61.7503C38.9715 62.0762 38.4038 62.2515 37.8222 62.2541H19.8359V21.9984H37.8222C38.2906 21.9941 38.7503 22.1095 39.1599 22.3361C40.1468 22.8328 40.7698 23.8437 40.7698 24.9504Z" fill="black"/>
<path opacity="0.2" d="M40.7698 24.9504V56.0756C40.7664 56.8573 40.4551 57.6062 39.9034 58.16C39.3516 58.7138 38.6039 59.0278 37.8222 59.0341H19.8359V21.9984H37.8222C38.2906 21.9941 38.7503 22.1095 39.1599 22.3361C40.1468 22.8328 40.7698 23.8437 40.7698 24.9504Z" fill="black"/>
<path opacity="0.2" d="M39.1599 24.9503V56.0755C39.1587 56.8579 38.8482 57.6081 38.2959 58.1624C37.7437 58.7166 36.9947 59.03 36.2123 59.034H19.8359V21.9983H36.2123C37.8418 21.9983 39.1599 23.3207 39.1599 24.9481V24.9503Z" fill="black"/>
<path d="M6.68852 21.9983H36.2082C37.8399 21.9983 39.1601 23.3185 39.1601 24.9503V54.4699C39.1601 56.1038 37.8399 57.424 36.2103 57.424H6.68634C5.90343 57.424 5.15259 57.113 4.59899 56.5594C4.04538 56.0058 3.73438 55.255 3.73438 54.4721V24.9503C3.73438 23.3185 5.05895 21.9983 6.68852 21.9983Z" fill="url(#paint1_linear_1_23220)"/>
<path d="M12.9603 34.3766C13.6878 32.8262 14.8622 31.5289 16.3327 30.6512C17.9609 29.7193 19.8147 29.2549 21.6898 29.3092C23.428 29.2709 25.1433 29.711 26.6483 30.5815C28.0622 31.4268 29.2016 32.662 29.927 34.1413C30.7178 35.7708 31.1122 37.5616 31.0773 39.3742C31.1158 41.2664 30.7107 43.1414 29.8943 44.8489C29.1507 46.3805 27.9744 47.6605 26.511 48.5307C24.9487 49.4277 23.1706 49.8798 21.3696 49.8379C19.5946 49.8816 17.8417 49.437 16.3022 48.5525C14.8746 47.7076 13.7205 46.4695 12.9777 44.9862C12.1821 43.38 11.7832 41.6064 11.8144 39.8143C11.7818 37.9385 12.1735 36.0796 12.9603 34.3766ZM16.5549 43.1192C16.9427 44.0995 17.6007 44.9492 18.4503 45.5701C19.3174 46.1757 20.3566 46.4894 21.4132 46.4633C22.5397 46.5077 23.6501 46.1842 24.5764 45.5417C25.4165 44.9223 26.0565 44.0702 26.4173 43.0908C26.8215 41.9964 27.0209 40.837 27.0056 39.6705C27.0183 38.4936 26.8312 37.323 26.4522 36.2087C26.1173 35.2028 25.4975 34.3157 24.6679 33.6554C23.7648 32.9833 22.6578 32.6425 21.533 32.6903C20.4524 32.6622 19.3908 32.9772 18.5004 33.5901C17.6346 34.2141 16.9643 35.0718 16.568 36.0628C15.6891 38.3327 15.6844 40.846 16.5549 43.1192Z" fill="white"/>
<path d="M55.2656 17.1702H69.7575V31.662H55.2656V17.1702Z" fill="#50D9FF"/>
</g>
</g>
</g>
<defs>
<linearGradient id="paint0_linear_1_23220" x1="46.4058" y1="41.3215" x2="46.4058" y2="71.9174" gradientUnits="userSpaceOnUse">
<stop stop-color="#35B8F1"/>
<stop offset="1" stop-color="#28A8EA"/>
</linearGradient>
<linearGradient id="paint1_linear_1_23220" x1="9.88884" y1="19.6912" x2="33.0057" y2="59.7312" gradientUnits="userSpaceOnUse">
<stop stop-color="#1784D9"/>
<stop offset="0.5" stop-color="#107AD5"/>
<stop offset="1" stop-color="#0A63C9"/>
</linearGradient>
<clipPath id="clip0_1_23220">
<rect width="76.25" height="76.25" fill="white" transform="translate(0.5 0.630127)"/>
</clipPath>
<clipPath id="clip1_1_23220">
<rect width="76.25" height="76.25" fill="white" transform="translate(0.5 0.630127)"/>
</clipPath>
</defs>
</svg>
