<svg width="77" height="77" viewBox="0 0 77 77" fill="none" xmlns="http://www.w3.org/2000/svg">
<g clip-path="url(#clip0_1_23196)">
<g clip-path="url(#clip1_1_23196)">
<path d="M1.38281 2.67603H75.4542V76.7475H1.38281V2.67603Z" fill="white"/>
<path d="M28.5652 11.1311H66.3721C66.9385 11.1311 67.396 11.5842 67.396 12.1441V49.4217C67.396 49.9816 66.9385 50.4325 66.3721 50.4325H27.5391V12.1441C27.5391 11.5864 27.9987 11.1311 28.5652 11.1311Z" fill="#CAF23A"/>
<path d="M10.4536 50.4319H27.5402V67.2788C27.5402 67.8387 27.0827 68.2896 26.514 68.2896H10.4536C10.32 68.2905 10.1875 68.265 10.0638 68.2147C9.94001 68.1644 9.82737 68.0901 9.73229 67.9963C9.63721 67.9024 9.56155 67.7907 9.50963 67.6676C9.45771 67.5445 9.43054 67.4124 9.42969 67.2788V51.4449C9.42969 50.885 9.88719 50.4319 10.4536 50.4319Z" fill="#4FC26B"/>
</g>
</g>
<defs>
<clipPath id="clip0_1_23196">
<rect width="76.25" height="76.25" fill="white" transform="translate(0.75 0.630127)"/>
</clipPath>
<clipPath id="clip1_1_23196">
<rect width="76.25" height="76.25" fill="white" transform="translate(0.75 0.630127)"/>
</clipPath>
</defs>
</svg>
