<svg width="100" height="26" viewBox="0 0 100 26" fill="none" xmlns="http://www.w3.org/2000/svg">
<path d="M81.7751 1.60254H77.6641V5.71454H81.7741L81.7751 1.60254Z" fill="#1C1D1F"/>
<path fill-rule="evenodd" clip-rule="evenodd" d="M65.7657 12.1587H62.1558V18.8397C62.1558 19.3967 62.2938 19.8037 62.5718 20.0597C62.8508 20.3177 63.2577 20.4677 63.7917 20.5097C64.3267 20.5307 64.9918 20.5217 65.7848 20.4787V24.2367C62.9798 24.5577 60.9778 24.2997 59.7788 23.4667C58.6008 22.6107 58.0127 21.0687 58.0127 18.8417V12.1617H55.2188V8.17666H58.0127V4.93266L62.1558 3.68066V8.17866H68.5598V4.93466L72.7028 3.68266V8.18066H76.3317V12.1647H72.7018V18.8447C72.7018 19.4027 72.8408 19.8097 73.1188 20.0647C73.3978 20.3237 73.8048 20.4727 74.3388 20.5157C74.8738 20.5357 75.5387 20.5277 76.3288 20.4837V24.2427C73.5247 24.5627 71.5238 24.3057 70.3238 23.4727C69.1468 22.6167 68.5577 21.0747 68.5577 18.8477V12.1667H65.7637L65.7657 12.1587Z" fill="#1C1D1F"/>
<path d="M81.7914 8.17285H77.6484V24.2349H81.7914V8.17285Z" fill="#1C1D1F"/>
<path fill-rule="evenodd" clip-rule="evenodd" d="M91.5538 7.75586C89.3134 7.75639 87.165 8.64682 85.5811 10.2313C83.9972 11.8157 83.1075 13.9645 83.1078 16.2049C83.0867 17.3275 83.2895 18.443 83.7045 19.4863C84.1194 20.5296 84.7382 21.4797 85.5247 22.2811C86.3111 23.0825 87.2494 23.7191 88.2847 24.1537C89.32 24.5882 90.4315 24.812 91.5543 24.812C92.6771 24.812 93.7887 24.5882 94.824 24.1537C95.8593 23.7191 96.7975 23.0825 97.584 22.2811C98.3704 21.4797 98.9892 20.5296 99.4042 19.4863C99.8191 18.443 100.022 17.3275 100.001 16.2049C100.001 15.0954 99.783 13.9967 99.3587 12.9716C98.9343 11.9464 98.3122 11.015 97.5277 10.2303C96.7433 9.44573 95.812 8.82335 94.787 8.39877C93.7619 7.97419 92.6633 7.75573 91.5538 7.75586ZM91.5398 20.6709C90.3678 20.6461 89.2521 20.1631 88.4319 19.3255C87.6118 18.4878 87.1525 17.3622 87.1525 16.1899C87.1525 15.0176 87.6118 13.8919 88.4319 13.0543C89.2521 12.2166 90.3678 11.7336 91.5398 11.7089C92.7278 11.7091 93.8671 12.1812 94.707 13.0214C95.547 13.8615 96.0188 15.0009 96.0188 16.1889C96.0191 16.7774 95.9034 17.3601 95.6784 17.9039C95.4533 18.4477 95.1234 18.9418 94.7074 19.358C94.2913 19.7742 93.7974 20.1044 93.2537 20.3296C92.71 20.5549 92.1283 20.6709 91.5398 20.6709ZM49.7918 8.14086V9.03286C48.5127 8.23751 47.0443 7.79859 45.5386 7.76155C44.0328 7.72451 42.5446 8.0907 41.228 8.82219C39.9113 9.55369 38.8142 10.6239 38.0502 11.9219C37.2862 13.22 36.8832 14.6987 36.8828 16.2049C36.8831 17.7112 37.2861 19.1901 38.0501 20.4883C38.8142 21.7865 39.9114 22.8568 41.2282 23.5883C42.545 24.3198 44.0334 24.6859 45.5393 24.6488C47.0452 24.6116 48.5137 24.1725 49.7928 23.3769V24.2679H53.9028V8.14086H49.7918ZM45.3148 20.6709C44.1428 20.6461 43.0271 20.1631 42.2069 19.3255C41.3868 18.4878 40.9275 17.3622 40.9275 16.1899C40.9275 15.0176 41.3868 13.8919 42.2069 13.0543C43.0271 12.2166 44.1428 11.7336 45.3148 11.7089C46.4912 11.7048 47.6215 12.1655 48.46 12.9906C49.2984 13.8157 49.7771 14.9386 49.7918 16.1149V16.2629C49.7729 17.4378 49.2929 18.5582 48.4554 19.3825C47.6179 20.2067 46.4899 20.6687 45.3148 20.6689V20.6709Z" fill="#1C1D1F"/>
<path d="M29.7528 17.8613L27.2408 13.8413C27.2408 13.8413 27.2318 13.8243 27.2258 13.8173L27.0278 13.5013C26.8456 13.2076 26.5914 12.9653 26.2894 12.7973C25.9873 12.6293 25.6474 12.5412 25.3018 12.5413L21.2558 12.5273L20.9738 12.9803L16.1388 20.7163L15.8718 21.1443L17.8988 24.3793C18.2728 24.9813 18.9188 25.3403 19.6308 25.3403H25.3008C25.9998 25.3403 26.6608 24.9723 27.0308 24.3813L27.2308 24.0613C27.2308 24.0613 27.2388 24.0533 27.2408 24.0493L29.7558 20.0243C29.9582 19.6997 30.0655 19.3248 30.0655 18.9423C30.0655 18.5598 29.9582 18.1849 29.7558 17.8603H29.7538L29.7528 17.8613ZM28.9868 19.5443L26.4708 23.5693C26.4608 23.5893 26.4468 23.6033 26.4358 23.6193C26.4004 23.6589 26.3562 23.6896 26.3068 23.7091C26.2573 23.7285 26.2041 23.7361 26.1512 23.7313C26.0983 23.7264 26.0473 23.7092 26.0022 23.6811C25.9572 23.653 25.9193 23.6147 25.8918 23.5693L23.3768 19.5423C23.3198 19.4523 23.276 19.3547 23.2468 19.2523C23.2031 19.1005 23.1919 18.9412 23.2138 18.7848C23.2356 18.6284 23.2901 18.4783 23.3738 18.3443L25.8858 14.3243L25.8918 14.3143C25.9518 14.2243 26.0268 14.1833 26.0918 14.1703C26.1178 14.1623 26.1408 14.1603 26.1588 14.1573H26.1868C26.2448 14.1573 26.3888 14.1753 26.4788 14.3213L28.9898 18.3413C29.2198 18.7073 29.2198 19.1783 28.9898 19.5443H28.9868ZM22.3208 8.13531C22.5223 7.81038 22.629 7.43564 22.629 7.05331C22.629 6.67097 22.5223 6.29623 22.3208 5.97131L19.8088 1.95131L19.5988 1.61331C19.4159 1.31898 19.1607 1.07634 18.8575 0.908482C18.5544 0.740622 18.2133 0.653123 17.8668 0.654309H12.1968C11.4898 0.654309 10.8428 1.01431 10.4658 1.61431L0.312764 17.8653C0.108773 18.1889 0.000354717 18.5635 8.68919e-07 18.946C-0.000352979 19.3285 0.107372 19.7034 0.310764 20.0273L3.03376 24.3863C3.21613 24.6807 3.47091 24.9234 3.77378 25.0913C4.07664 25.2592 4.41748 25.3466 4.76376 25.3453H10.4338C11.1458 25.3453 11.7918 24.9853 12.1658 24.3853L12.3738 24.0553V24.0513L12.3768 24.0443L14.4008 20.8073L20.3998 11.2073L22.3168 8.13731L22.3208 8.13631V8.13531ZM21.7278 7.05331C21.7278 7.26031 21.6698 7.46931 21.5528 7.65431L11.6068 23.5723C11.576 23.6216 11.5331 23.6622 11.4821 23.6903C11.4312 23.7183 11.3739 23.7327 11.3158 23.7323C11.2575 23.7327 11.2001 23.7182 11.149 23.6902C11.0979 23.6622 11.0548 23.6216 11.0238 23.5723L8.51076 19.5453C8.39891 19.3648 8.33965 19.1567 8.33965 18.9443C8.33965 18.732 8.39891 18.5238 8.51076 18.3433L18.4558 2.43031C18.4862 2.38021 18.5291 2.33887 18.5803 2.3103C18.6314 2.28173 18.6892 2.26692 18.7478 2.26731C18.8058 2.26731 18.9498 2.28431 19.0408 2.43131L21.5528 6.45131C21.6698 6.63631 21.7278 6.84531 21.7278 7.05331Z" fill="#1C1D1F"/>
</svg>
