<svg width="77" height="77" viewBox="0 0 77 77" fill="none" xmlns="http://www.w3.org/2000/svg">
<g clip-path="url(#clip0_1_23249)">
<g clip-path="url(#clip1_1_23249)">
<path d="M0.835938 2.67603H74.9074V76.7475H0.835938V2.67603Z" fill="white"/>
<mask id="mask0_1_23249" style="mask-type:luminance" maskUnits="userSpaceOnUse" x="5" y="15" width="66" height="49">
<path d="M5.67188 15.553H70.0813V63.8693H5.67188V15.553Z" fill="white"/>
</mask>
<g mask="url(#mask0_1_23249)">
<path d="M10.0661 63.8729H20.3119V38.9871L5.67188 28.0071V59.4809C5.67188 61.9078 7.63913 63.8729 10.0661 63.8729Z" fill="#4285F4"/>
<path d="M55.4397 63.8729H65.6855C66.2623 63.8732 66.8336 63.7598 67.3666 63.5392C67.8996 63.3185 68.3839 62.995 68.7918 62.5872C69.1996 62.1793 69.5231 61.695 69.7438 61.162C69.9644 60.629 70.0778 60.0577 70.0775 59.4809V28.0071L55.4375 38.9871L55.4397 63.8729Z" fill="#34A853"/>
<path d="M55.4375 19.9529V38.9849L70.0753 28.0049V22.1533C70.0753 16.7243 63.8795 13.6242 59.5354 16.8811L55.4375 19.9573V19.9529Z" fill="#FBBC04"/>
<path d="M20.3125 38.9854V19.9534L37.8783 33.1272L55.4441 19.9534V38.9832L37.8783 52.157L20.3125 38.9832V38.9854Z" fill="#EA4335"/>
<path d="M5.67405 22.1515V28.0053L20.3141 38.9853V19.9533L16.2118 16.8815C11.8677 13.6224 5.67405 16.7225 5.67405 22.1515Z" fill="#C5221F"/>
</g>
</g>
</g>
<defs>
<clipPath id="clip0_1_23249">
<rect width="76.25" height="76.25" fill="white" transform="translate(0.75 0.630127)"/>
</clipPath>
<clipPath id="clip1_1_23249">
<rect width="76.25" height="76.25" fill="white" transform="translate(0.75 0.630127)"/>
</clipPath>
</defs>
</svg>
