<svg width="18" height="14" viewBox="0 0 18 14" fill="none" xmlns="http://www.w3.org/2000/svg">
<path d="M15.4327 3.57868C15.4427 3.72668 15.4427 3.87468 15.4427 4.02368C15.4427 8.57068 11.9927 13.8137 5.68569 13.8137V13.8117C3.82169 13.814 1.99665 13.2782 0.429688 12.2687C1.32783 12.3768 2.2385 12.3065 3.10941 12.0618C3.98031 11.8171 4.79432 11.4028 5.50469 10.8427C4.78804 10.8284 4.0938 10.5903 3.51925 10.1617C2.94469 9.73313 2.51861 9.13554 2.30069 8.45268C2.81469 8.55268 3.34469 8.53268 3.84869 8.39368C3.07175 8.23499 2.37355 7.8126 1.87237 7.19807C1.3712 6.58354 1.09787 5.81466 1.09869 5.02168V4.97768C1.57469 5.24468 2.10869 5.39168 2.65469 5.40768C1.92851 4.91901 1.41501 4.17279 1.21805 3.31995C1.02108 2.46711 1.15535 1.5713 1.59369 0.813679C2.45289 1.87586 3.52632 2.745 4.744 3.36444C5.96168 3.98387 7.29625 4.33969 8.66069 4.40868C8.52451 3.82172 8.54444 3.20933 8.71848 2.63247C8.89252 2.0556 9.21461 1.53438 9.65269 1.12068C9.98065 0.811027 10.3665 0.569205 10.7882 0.409093C11.2099 0.248981 11.659 0.173733 12.1098 0.187671C12.5607 0.201608 13.0043 0.304456 13.4153 0.490309C13.8263 0.676162 14.1965 0.941361 14.5047 1.27068C15.2727 1.11821 16.009 0.83546 16.6817 0.434678C16.4263 1.23054 15.8908 1.90671 15.1747 2.33768C15.8548 2.25749 16.519 2.0751 17.1447 1.79668C16.6845 2.48777 16.1048 3.09123 15.4327 3.57868Z" fill="#717A88"/>
</svg>
